<svg xmlns="http://www.w3.org/2000/svg" xmlns:xlink="http://www.w3.org/1999/xlink" width="158" height="75" viewBox="0 0 158 75"><svg x="0" y="0" width="75" height="75" viewBox="0 0 75 75"><rect width="58.33333333333333" height="58.33333333333333" x="8.333333333333334" y="8.333333333333334" fill="#000000"></rect><rect width="6.5625" height="6.5625" x="8.819444444444445" y="8.819444444444445" rx="0" ry="0" fill="#888888"></rect><rect width="6.5625" height="6.5625" x="8.819444444444445" y="11.006944444444445" rx="0" ry="0" fill="#888888"></rect><rect width="6.5625" height="6.5625" x="11.006944444444445" y="8.819444444444445" rx="0" ry="0" fill="#888888"></rect><rect width="6.5625" height="6.5625" x="11.006944444444445" y="11.006944444444445" rx="1" ry="1" fill="#888888"></rect><rect width="6.5625" height="6.5625" x="8.819444444444445" y="18.541666666666668" rx="0" ry="0" fill="#888888"></rect><rect width="6.5625" height="6.5625" x="8.819444444444445" y="20.729166666666668" rx="0" ry="0" fill="#888888"></rect><rect width="6.5625" height="6.5625" x="11.006944444444445" y="18.541666666666668" rx="2.1875" ry="2.1875" fill="#888888"></rect><rect width="6.5625" height="6.5625" x="11.006944444444445" y="20.729166666666668" rx="2.1875" ry="2.1875" fill="#888888"></rect><rect width="6.5625" height="6.5625" x="8.819444444444445" y="28.26388888888889" rx="0" ry="0" fill="#888888"></rect><rect width="6.5625" height="6.5625" x="8.819444444444445" y="30.45138888888889" rx="0" ry="0" fill="#888888"></rect><rect width="6.5625" height="6.5625" x="11.006944444444445" y="28.26388888888889" rx="2.1875" ry="2.1875" fill="#888888"></rect><rect width="6.5625" height="6.5625" x="11.006944444444445" y="30.45138888888889" rx="2.1875" ry="2.1875" fill="#888888"></rect><rect width="6.5625" height="6.5625" x="8.819444444444445" y="37.986111111111114" rx="0" ry="0" fill="#888888"></rect><rect width="6.5625" height="6.5625" x="8.819444444444445" y="40.173611111111114" rx="0" ry="0" fill="#888888"></rect><rect width="6.5625" height="6.5625" x="11.006944444444445" y="37.986111111111114" rx="2.1875" ry="2.1875" fill="#888888"></rect><rect width="6.5625" height="6.5625" x="11.006944444444445" y="40.173611111111114" rx="2.1875" ry="2.1875" fill="#888888"></rect><rect width="6.5625" height="6.5625" x="8.819444444444445" y="47.708333333333336" rx="0" ry="0" fill="#888888"></rect><rect width="6.5625" height="6.5625" x="8.819444444444445" y="49.895833333333336" rx="0" ry="0" fill="#888888"></rect><rect width="6.5625" height="6.5625" x="11.006944444444445" y="47.708333333333336" rx="2.1875" ry="2.1875" fill="#888888"></rect><rect width="6.5625" height="6.5625" x="11.006944444444445" y="49.895833333333336" rx="2.1875" ry="2.1875" fill="#888888"></rect><rect width="6.5625" height="6.5625" x="8.819444444444445" y="57.43055555555556" rx="0" ry="0" fill="#888888"></rect><rect width="6.5625" height="6.5625" x="8.819444444444445" y="59.61805555555556" rx="0" ry="0" fill="#888888"></rect><rect width="6.5625" height="6.5625" x="11.006944444444445" y="57.43055555555556" rx="2.1875" ry="2.1875" fill="#888888"></rect><rect width="6.5625" height="6.5625" x="11.006944444444445" y="59.61805555555556" rx="0" ry="0" fill="#888888"></rect><rect width="6.5625" height="6.5625" x="18.541666666666668" y="8.819444444444445" rx="0" ry="0" fill="#888888"></rect><rect width="6.5625" height="6.5625" x="18.541666666666668" y="11.006944444444445" rx="2.1875" ry="2.1875" fill="#888888"></rect><rect width="6.5625" height="6.5625" x="20.729166666666668" y="8.819444444444445" rx="0" ry="0" fill="#888888"></rect><rect width="6.5625" height="6.5625" x="20.729166666666668" y="11.006944444444445" rx="2.1875" ry="2.1875" fill="#888888"></rect><rect width="6.5625" height="6.5625" x="18.541666666666668" y="18.541666666666668" rx="2.1875" ry="2.1875" fill="#11aa00"></rect><rect width="6.5625" height="6.5625" x="18.541666666666668" y="20.729166666666668" rx="2.1875" ry="2.1875" fill="#11aa00"></rect><rect width="6.5625" height="6.5625" x="20.729166666666668" y="18.541666666666668" rx="2.1875" ry="2.1875" fill="#11aa00"></rect><rect width="6.5625" height="6.5625" x="20.729166666666668" y="20.729166666666668" rx="2.1875" ry="2.1875" fill="#11aa00"></rect><rect width="6.5625" height="6.5625" x="18.541666666666668" y="28.26388888888889" rx="2.1875" ry="2.1875" fill="#ffff00"></rect><rect width="6.5625" height="6.5625" x="18.541666666666668" y="30.45138888888889" rx="2.1875" ry="2.1875" fill="#ffff00"></rect><rect width="6.5625" height="6.5625" x="20.729166666666668" y="28.26388888888889" rx="2.1875" ry="2.1875" fill="#ffff00"></rect><rect width="6.5625" height="6.5625" x="20.729166666666668" y="30.45138888888889" rx="2.1875" ry="2.1875" fill="#ffff00"></rect><rect width="6.5625" height="6.5625" x="18.541666666666668" y="37.986111111111114" rx="2.1875" ry="2.1875" fill="#ffff00"></rect><rect width="6.5625" height="6.5625" x="18.541666666666668" y="40.173611111111114" rx="2.1875" ry="2.1875" fill="#ffff00"></rect><rect width="6.5625" height="6.5625" x="20.729166666666668" y="37.986111111111114" rx="2.1875" ry="2.1875" fill="#ffff00"></rect><rect width="6.5625" height="6.5625" x="20.729166666666668" y="40.173611111111114" rx="2.1875" ry="2.1875" fill="#ffff00"></rect><rect width="6.5625" height="6.5625" x="18.541666666666668" y="47.708333333333336" rx="2.1875" ry="2.1875" fill="#ffff00"></rect><rect width="6.5625" height="6.5625" x="18.541666666666668" y="49.895833333333336" rx="2.1875" ry="2.1875" fill="#ffff00"></rect><rect width="6.5625" height="6.5625" x="20.729166666666668" y="47.708333333333336" rx="2.1875" ry="2.1875" fill="#ffff00"></rect><rect width="6.5625" height="6.5625" x="20.729166666666668" y="49.895833333333336" rx="2.1875" ry="2.1875" fill="#ffff00"></rect><rect width="6.5625" height="6.5625" x="18.541666666666668" y="57.43055555555556" rx="2.1875" ry="2.1875" fill="#888888"></rect><rect width="6.5625" height="6.5625" x="18.541666666666668" y="59.61805555555556" rx="0" ry="0" fill="#888888"></rect><rect width="6.5625" height="6.5625" x="20.729166666666668" y="57.43055555555556" rx="2.1875" ry="2.1875" fill="#888888"></rect><rect width="6.5625" height="6.5625" x="20.729166666666668" y="59.61805555555556" rx="0" ry="0" fill="#888888"></rect><rect width="6.5625" height="6.5625" x="28.26388888888889" y="8.819444444444445" rx="0" ry="0" fill="#888888"></rect><rect width="6.5625" height="6.5625" x="28.26388888888889" y="11.006944444444445" rx="2.1875" ry="2.1875" fill="#888888"></rect><rect width="6.5625" height="6.5625" x="30.45138888888889" y="8.819444444444445" rx="0" ry="0" fill="#888888"></rect><rect width="6.5625" height="6.5625" x="30.45138888888889" y="11.006944444444445" rx="2.1875" ry="2.1875" fill="#888888"></rect><rect width="6.5625" height="6.5625" x="28.26388888888889" y="18.541666666666668" rx="2.1875" ry="2.1875" fill="#ffff00"></rect><rect width="6.5625" height="6.5625" x="28.26388888888889" y="20.729166666666668" rx="2.1875" ry="2.1875" fill="#ffff00"></rect><rect width="6.5625" height="6.5625" x="30.45138888888889" y="18.541666666666668" rx="2.1875" ry="2.1875" fill="#ffff00"></rect><rect width="6.5625" height="6.5625" x="30.45138888888889" y="20.729166666666668" rx="2.1875" ry="2.1875" fill="#ffff00"></rect><rect width="6.5625" height="6.5625" x="28.26388888888889" y="28.26388888888889" rx="2.1875" ry="2.1875" fill="#ffff00"></rect><rect width="6.5625" height="6.5625" x="28.26388888888889" y="30.45138888888889" rx="2.1875" ry="2.1875" fill="#ffff00"></rect><rect width="6.5625" height="6.5625" x="30.45138888888889" y="28.26388888888889" rx="2.1875" ry="2.1875" fill="#ffff00"></rect><rect width="6.5625" height="6.5625" x="30.45138888888889" y="30.45138888888889" rx="2.1875" ry="2.1875" fill="#ffff00"></rect><rect width="6.5625" height="6.5625" x="28.26388888888889" y="37.986111111111114" rx="2.1875" ry="2.1875" fill="#ffff00"></rect><rect width="6.5625" height="6.5625" x="28.26388888888889" y="40.173611111111114" rx="2.1875" ry="2.1875" fill="#ffff00"></rect><rect width="6.5625" height="6.5625" x="30.45138888888889" y="37.986111111111114" rx="2.1875" ry="2.1875" fill="#ffff00"></rect><rect width="6.5625" height="6.5625" x="30.45138888888889" y="40.173611111111114" rx="2.1875" ry="2.1875" fill="#ffff00"></rect><rect width="6.5625" height="6.5625" x="28.26388888888889" y="47.708333333333336" rx="2.1875" ry="2.1875" fill="#ffff00"></rect><rect width="6.5625" height="6.5625" x="28.26388888888889" y="49.895833333333336" rx="2.1875" ry="2.1875" fill="#ffff00"></rect><rect width="6.5625" height="6.5625" x="30.45138888888889" y="47.708333333333336" rx="2.1875" ry="2.1875" fill="#ffff00"></rect><rect width="6.5625" height="6.5625" x="30.45138888888889" y="49.895833333333336" rx="2.1875" ry="2.1875" fill="#ffff00"></rect><rect width="6.5625" height="6.5625" x="28.26388888888889" y="57.43055555555556" rx="2.1875" ry="2.1875" fill="#888888"></rect><rect width="6.5625" height="6.5625" x="28.26388888888889" y="59.61805555555556" rx="0" ry="0" fill="#888888"></rect><rect width="6.5625" height="6.5625" x="30.45138888888889" y="57.43055555555556" rx="2.1875" ry="2.1875" fill="#888888"></rect><rect width="6.5625" height="6.5625" x="30.45138888888889" y="59.61805555555556" rx="0" ry="0" fill="#888888"></rect><rect width="6.5625" height="6.5625" x="37.986111111111114" y="8.819444444444445" rx="0" ry="0" fill="#888888"></rect><rect width="6.5625" height="6.5625" x="37.986111111111114" y="11.006944444444445" rx="2.1875" ry="2.1875" fill="#888888"></rect><rect width="6.5625" height="6.5625" x="40.173611111111114" y="8.819444444444445" rx="0" ry="0" fill="#888888"></rect><rect width="6.5625" height="6.5625" x="40.173611111111114" y="11.006944444444445" rx="2.1875" ry="2.1875" fill="#888888"></rect><rect width="6.5625" height="6.5625" x="37.986111111111114" y="18.541666666666668" rx="2.1875" ry="2.1875" fill="#11aa00"></rect><rect width="6.5625" height="6.5625" x="37.986111111111114" y="20.729166666666668" rx="2.1875" ry="2.1875" fill="#11aa00"></rect><rect width="6.5625" height="6.5625" x="40.173611111111114" y="18.541666666666668" rx="2.1875" ry="2.1875" fill="#11aa00"></rect><rect width="6.5625" height="6.5625" x="40.173611111111114" y="20.729166666666668" rx="2.1875" ry="2.1875" fill="#11aa00"></rect><rect width="6.5625" height="6.5625" x="37.986111111111114" y="28.26388888888889" rx="2.1875" ry="2.1875" fill="#ffff00"></rect><rect width="6.5625" height="6.5625" x="37.986111111111114" y="30.45138888888889" rx="2.1875" ry="2.1875" fill="#ffff00"></rect><rect width="6.5625" height="6.5625" x="40.173611111111114" y="28.26388888888889" rx="2.1875" ry="2.1875" fill="#ffff00"></rect><rect width="6.5625" height="6.5625" x="40.173611111111114" y="30.45138888888889" rx="2.1875" ry="2.1875" fill="#ffff00"></rect><rect width="6.5625" height="6.5625" x="37.986111111111114" y="37.986111111111114" rx="2.1875" ry="2.1875" fill="#ffff00"></rect><rect width="6.5625" height="6.5625" x="37.986111111111114" y="40.173611111111114" rx="2.1875" ry="2.1875" fill="#ffff00"></rect><rect width="6.5625" height="6.5625" x="40.173611111111114" y="37.986111111111114" rx="2.1875" ry="2.1875" fill="#ffff00"></rect><rect width="6.5625" height="6.5625" x="40.173611111111114" y="40.173611111111114" rx="2.1875" ry="2.1875" fill="#ffff00"></rect><rect width="6.5625" height="6.5625" x="37.986111111111114" y="47.708333333333336" rx="2.1875" ry="2.1875" fill="#11aa00"></rect><rect width="6.5625" height="6.5625" x="37.986111111111114" y="49.895833333333336" rx="2.1875" ry="2.1875" fill="#11aa00"></rect><rect width="6.5625" height="6.5625" x="40.173611111111114" y="47.708333333333336" rx="2.1875" ry="2.1875" fill="#11aa00"></rect><rect width="6.5625" height="6.5625" x="40.173611111111114" y="49.895833333333336" rx="2.1875" ry="2.1875" fill="#11aa00"></rect><rect width="6.5625" height="6.5625" x="37.986111111111114" y="57.43055555555556" rx="2.1875" ry="2.1875" fill="#888888"></rect><rect width="6.5625" height="6.5625" x="37.986111111111114" y="59.61805555555556" rx="0" ry="0" fill="#888888"></rect><rect width="6.5625" height="6.5625" x="40.173611111111114" y="57.43055555555556" rx="2.1875" ry="2.1875" fill="#888888"></rect><rect width="6.5625" height="6.5625" x="40.173611111111114" y="59.61805555555556" rx="0" ry="0" fill="#888888"></rect><rect width="6.5625" height="6.5625" x="47.708333333333336" y="8.819444444444445" rx="0" ry="0" fill="#888888"></rect><rect width="6.5625" height="6.5625" x="47.708333333333336" y="11.006944444444445" rx="2.1875" ry="2.1875" fill="#888888"></rect><rect width="6.5625" height="6.5625" x="49.895833333333336" y="8.819444444444445" rx="0" ry="0" fill="#888888"></rect><rect width="6.5625" height="6.5625" x="49.895833333333336" y="11.006944444444445" rx="2.1875" ry="2.1875" fill="#888888"></rect><rect width="6.5625" height="6.5625" x="47.708333333333336" y="18.541666666666668" rx="2.1875" ry="2.1875" fill="#ffff00"></rect><rect width="6.5625" height="6.5625" x="47.708333333333336" y="20.729166666666668" rx="2.1875" ry="2.1875" fill="#ffff00"></rect><rect width="6.5625" height="6.5625" x="49.895833333333336" y="18.541666666666668" rx="2.1875" ry="2.1875" fill="#ffff00"></rect><rect width="6.5625" height="6.5625" x="49.895833333333336" y="20.729166666666668" rx="2.1875" ry="2.1875" fill="#ffff00"></rect><rect width="6.5625" height="6.5625" x="47.708333333333336" y="28.26388888888889" rx="2.1875" ry="2.1875" fill="#ffff00"></rect><rect width="6.5625" height="6.5625" x="47.708333333333336" y="30.45138888888889" rx="2.1875" ry="2.1875" fill="#ffff00"></rect><rect width="6.5625" height="6.5625" x="49.895833333333336" y="28.26388888888889" rx="2.1875" ry="2.1875" fill="#ffff00"></rect><rect width="6.5625" height="6.5625" x="49.895833333333336" y="30.45138888888889" rx="2.1875" ry="2.1875" fill="#ffff00"></rect><rect width="6.5625" height="6.5625" x="47.708333333333336" y="37.986111111111114" rx="2.1875" ry="2.1875" fill="#ffff00"></rect><rect width="6.5625" height="6.5625" x="47.708333333333336" y="40.173611111111114" rx="2.1875" ry="2.1875" fill="#ffff00"></rect><rect width="6.5625" height="6.5625" x="49.895833333333336" y="37.986111111111114" rx="2.1875" ry="2.1875" fill="#ffff00"></rect><rect width="6.5625" height="6.5625" x="49.895833333333336" y="40.173611111111114" rx="2.1875" ry="2.1875" fill="#ffff00"></rect><rect width="6.5625" height="6.5625" x="47.708333333333336" y="47.708333333333336" rx="2.1875" ry="2.1875" fill="#ffff00"></rect><rect width="6.5625" height="6.5625" x="47.708333333333336" y="49.895833333333336" rx="2.1875" ry="2.1875" fill="#ffff00"></rect><rect width="6.5625" height="6.5625" x="49.895833333333336" y="47.708333333333336" rx="2.1875" ry="2.1875" fill="#ffff00"></rect><rect width="6.5625" height="6.5625" x="49.895833333333336" y="49.895833333333336" rx="2.1875" ry="2.1875" fill="#ffff00"></rect><rect width="6.5625" height="6.5625" x="47.708333333333336" y="57.43055555555556" rx="2.1875" ry="2.1875" fill="#888888"></rect><rect width="6.5625" height="6.5625" x="47.708333333333336" y="59.61805555555556" rx="0" ry="0" fill="#888888"></rect><rect width="6.5625" height="6.5625" x="49.895833333333336" y="57.43055555555556" rx="2.1875" ry="2.1875" fill="#888888"></rect><rect width="6.5625" height="6.5625" x="49.895833333333336" y="59.61805555555556" rx="0" ry="0" fill="#888888"></rect><rect width="6.5625" height="6.5625" x="57.43055555555556" y="8.819444444444445" rx="0" ry="0" fill="#888888"></rect><rect width="6.5625" height="6.5625" x="57.43055555555556" y="11.006944444444445" rx="1" ry="1" fill="#888888"></rect><rect width="6.5625" height="6.5625" x="59.61805555555556" y="8.819444444444445" rx="1" ry="1" fill="#888888"></rect><rect width="6.5625" height="6.5625" x="59.61805555555556" y="11.006944444444445" rx="0" ry="0" fill="#888888"></rect><rect width="6.5625" height="6.5625" x="57.43055555555556" y="18.541666666666668" rx="2.1875" ry="2.1875" fill="#888888"></rect><rect width="6.5625" height="6.5625" x="57.43055555555556" y="20.729166666666668" rx="2.1875" ry="2.1875" fill="#888888"></rect><rect width="6.5625" height="6.5625" x="59.61805555555556" y="18.541666666666668" rx="1" ry="1" fill="#888888"></rect><rect width="6.5625" height="6.5625" x="59.61805555555556" y="20.729166666666668" rx="0" ry="0" fill="#888888"></rect><rect width="6.5625" height="6.5625" x="57.43055555555556" y="28.26388888888889" rx="2.1875" ry="2.1875" fill="#888888"></rect><rect width="6.5625" height="6.5625" x="57.43055555555556" y="30.45138888888889" rx="2.1875" ry="2.1875" fill="#888888"></rect><rect width="6.5625" height="6.5625" x="59.61805555555556" y="28.26388888888889" rx="1" ry="1" fill="#888888"></rect><rect width="6.5625" height="6.5625" x="59.61805555555556" y="30.45138888888889" rx="0" ry="0" fill="#888888"></rect><rect width="6.5625" height="6.5625" x="57.43055555555556" y="37.986111111111114" rx="2.1875" ry="2.1875" fill="#888888"></rect><rect width="6.5625" height="6.5625" x="57.43055555555556" y="40.173611111111114" rx="2.1875" ry="2.1875" fill="#888888"></rect><rect width="6.5625" height="6.5625" x="59.61805555555556" y="37.986111111111114" rx="1" ry="1" fill="#888888"></rect><rect width="6.5625" height="6.5625" x="59.61805555555556" y="40.173611111111114" rx="0" ry="0" fill="#888888"></rect><rect width="6.5625" height="6.5625" x="57.43055555555556" y="47.708333333333336" rx="2.1875" ry="2.1875" fill="#888888"></rect><rect width="6.5625" height="6.5625" x="57.43055555555556" y="49.895833333333336" rx="2.1875" ry="2.1875" fill="#888888"></rect><rect width="6.5625" height="6.5625" x="59.61805555555556" y="47.708333333333336" rx="1" ry="1" fill="#888888"></rect><rect width="6.5625" height="6.5625" x="59.61805555555556" y="49.895833333333336" rx="0" ry="0" fill="#888888"></rect><rect width="6.5625" height="6.5625" x="57.43055555555556" y="57.43055555555556" rx="1" ry="1" fill="#888888"></rect><rect width="6.5625" height="6.5625" x="57.43055555555556" y="59.61805555555556" rx="0" ry="0" fill="#888888"></rect><rect width="6.5625" height="6.5625" x="59.61805555555556" y="57.43055555555556" rx="1" ry="1" fill="#888888"></rect><rect width="6.5625" height="6.5625" x="59.61805555555556" y="59.61805555555556" rx="0" ry="0" fill="#888888"></rect><rect width="58.33333333333333" height="8.333333333333334" x="8.333333333333334" y="0" fill="#000000"></rect><rect width="58.33333333333333" height="8.333333333333334" x="8.333333333333334" y="66.66666666666666" fill="#000000"></rect><rect width="8.333333333333334" height="58.33333333333333" x="0" y="8.333333333333334" fill="#000000"></rect><rect width="8.333333333333334" height="58.33333333333333" x="66.66666666666666" y="8.333333333333334" fill="#000000"></rect><rect width="8.75" height="7.361111111111112" x="8.819444444444445" y="0.48611111111111105" rx="1" ry="1" fill="#888888"></rect><rect width="8.75" height="7.361111111111112" x="8.819444444444445" y="67.15277777777777" rx="1" ry="1" fill="#888888"></rect><rect width="7.361111111111112" height="8.75" x="0.48611111111111105" y="8.819444444444445" rx="1" ry="1" fill="#888888"></rect><rect width="7.361111111111112" height="8.75" x="67.15277777777777" y="8.819444444444445" rx="1" ry="1" fill="#888888"></rect><rect width="8.75" height="7.361111111111112" x="18.541666666666668" y="0.48611111111111105" rx="1" ry="1" fill="#888888"></rect><rect width="8.75" height="7.361111111111112" x="18.541666666666668" y="67.15277777777777" rx="1" ry="1" fill="#888888"></rect><rect width="7.361111111111112" height="8.75" x="0.48611111111111105" y="18.541666666666668" rx="1" ry="1" fill="#888888"></rect><rect width="7.361111111111112" height="8.75" x="67.15277777777777" y="18.541666666666668" rx="1" ry="1" fill="#888888"></rect><rect width="8.75" height="7.361111111111112" x="28.26388888888889" y="0.48611111111111105" rx="1" ry="1" fill="#888888"></rect><rect width="8.75" height="7.361111111111112" x="28.26388888888889" y="67.15277777777777" rx="1" ry="1" fill="#888888"></rect><rect width="7.361111111111112" height="8.75" x="0.48611111111111105" y="28.26388888888889" rx="1" ry="1" fill="#888888"></rect><rect width="7.361111111111112" height="8.75" x="67.15277777777777" y="28.26388888888889" rx="1" ry="1" fill="#888888"></rect><rect width="8.75" height="7.361111111111112" x="37.986111111111114" y="0.48611111111111105" rx="1" ry="1" fill="#888888"></rect><rect width="8.75" height="7.361111111111112" x="37.986111111111114" y="67.15277777777777" rx="1" ry="1" fill="#888888"></rect><rect width="7.361111111111112" height="8.75" x="0.48611111111111105" y="37.986111111111114" rx="1" ry="1" fill="#888888"></rect><rect width="7.361111111111112" height="8.75" x="67.15277777777777" y="37.986111111111114" rx="1" ry="1" fill="#888888"></rect><rect width="8.75" height="7.361111111111112" x="47.708333333333336" y="0.48611111111111105" rx="1" ry="1" fill="#888888"></rect><rect width="8.75" height="7.361111111111112" x="47.708333333333336" y="67.15277777777777" rx="1" ry="1" fill="#888888"></rect><rect width="7.361111111111112" height="8.75" x="0.48611111111111105" y="47.708333333333336" rx="1" ry="1" fill="#888888"></rect><rect width="7.361111111111112" height="8.75" x="67.15277777777777" y="47.708333333333336" rx="1" ry="1" fill="#888888"></rect><rect width="8.75" height="7.361111111111112" x="57.43055555555556" y="0.48611111111111105" rx="1" ry="1" fill="#888888"></rect><rect width="8.75" height="7.361111111111112" x="57.43055555555556" y="67.15277777777777" rx="1" ry="1" fill="#888888"></rect><rect width="7.361111111111112" height="8.75" x="0.48611111111111105" y="57.43055555555556" rx="1" ry="1" fill="#888888"></rect><rect width="7.361111111111112" height="8.75" x="67.15277777777777" y="57.43055555555556" rx="1" ry="1" fill="#888888"></rect></svg><svg x="83" y="0" width="75" height="75" viewBox="0 0 75 75"><rect width="58.33333333333333" height="58.33333333333333" x="8.333333333333334" y="8.333333333333334" fill="#000000"></rect><rect width="6.5625" height="6.5625" x="8.819444444444445" y="8.819444444444445" rx="0" ry="0" fill="#888888"></rect><rect width="6.5625" height="6.5625" x="8.819444444444445" y="11.006944444444445" rx="0" ry="0" fill="#888888"></rect><rect width="6.5625" height="6.5625" x="11.006944444444445" y="8.819444444444445" rx="0" ry="0" fill="#888888"></rect><rect width="6.5625" height="6.5625" x="11.006944444444445" y="11.006944444444445" rx="1" ry="1" fill="#888888"></rect><rect width="6.5625" height="6.5625" x="8.819444444444445" y="18.541666666666668" rx="0" ry="0" fill="#888888"></rect><rect width="6.5625" height="6.5625" x="8.819444444444445" y="20.729166666666668" rx="0" ry="0" fill="#888888"></rect><rect width="6.5625" height="6.5625" x="11.006944444444445" y="18.541666666666668" rx="2.1875" ry="2.1875" fill="#888888"></rect><rect width="6.5625" height="6.5625" x="11.006944444444445" y="20.729166666666668" rx="2.1875" ry="2.1875" fill="#888888"></rect><rect width="6.5625" height="6.5625" x="8.819444444444445" y="28.26388888888889" rx="0" ry="0" fill="#888888"></rect><rect width="6.5625" height="6.5625" x="8.819444444444445" y="30.45138888888889" rx="0" ry="0" fill="#888888"></rect><rect width="6.5625" height="6.5625" x="11.006944444444445" y="28.26388888888889" rx="2.1875" ry="2.1875" fill="#888888"></rect><rect width="6.5625" height="6.5625" x="11.006944444444445" y="30.45138888888889" rx="2.1875" ry="2.1875" fill="#888888"></rect><rect width="6.5625" height="6.5625" x="8.819444444444445" y="37.986111111111114" rx="0" ry="0" fill="#888888"></rect><rect width="6.5625" height="6.5625" x="8.819444444444445" y="40.173611111111114" rx="0" ry="0" fill="#888888"></rect><rect width="6.5625" height="6.5625" x="11.006944444444445" y="37.986111111111114" rx="2.1875" ry="2.1875" fill="#888888"></rect><rect width="6.5625" height="6.5625" x="11.006944444444445" y="40.173611111111114" rx="2.1875" ry="2.1875" fill="#888888"></rect><rect width="6.5625" height="6.5625" x="8.819444444444445" y="47.708333333333336" rx="0" ry="0" fill="#888888"></rect><rect width="6.5625" height="6.5625" x="8.819444444444445" y="49.895833333333336" rx="0" ry="0" fill="#888888"></rect><rect width="6.5625" height="6.5625" x="11.006944444444445" y="47.708333333333336" rx="2.1875" ry="2.1875" fill="#888888"></rect><rect width="6.5625" height="6.5625" x="11.006944444444445" y="49.895833333333336" rx="2.1875" ry="2.1875" fill="#888888"></rect><rect width="6.5625" height="6.5625" x="8.819444444444445" y="57.43055555555556" rx="0" ry="0" fill="#888888"></rect><rect width="6.5625" height="6.5625" x="8.819444444444445" y="59.61805555555556" rx="0" ry="0" fill="#888888"></rect><rect width="6.5625" height="6.5625" x="11.006944444444445" y="57.43055555555556" rx="2.1875" ry="2.1875" fill="#888888"></rect><rect width="6.5625" height="6.5625" x="11.006944444444445" y="59.61805555555556" rx="0" ry="0" fill="#888888"></rect><rect width="6.5625" height="6.5625" x="18.541666666666668" y="8.819444444444445" rx="0" ry="0" fill="#888888"></rect><rect width="6.5625" height="6.5625" x="18.541666666666668" y="11.006944444444445" rx="2.1875" ry="2.1875" fill="#888888"></rect><rect width="6.5625" height="6.5625" x="20.729166666666668" y="8.819444444444445" rx="0" ry="0" fill="#888888"></rect><rect width="6.5625" height="6.5625" x="20.729166666666668" y="11.006944444444445" rx="2.1875" ry="2.1875" fill="#888888"></rect><rect width="6.5625" height="6.5625" x="18.541666666666668" y="18.541666666666668" rx="2.1875" ry="2.1875" fill="#11aa00"></rect><rect width="6.5625" height="6.5625" x="18.541666666666668" y="20.729166666666668" rx="2.1875" ry="2.1875" fill="#11aa00"></rect><rect width="6.5625" height="6.5625" x="20.729166666666668" y="18.541666666666668" rx="2.1875" ry="2.1875" fill="#11aa00"></rect><rect width="6.5625" height="6.5625" x="20.729166666666668" y="20.729166666666668" rx="2.1875" ry="2.1875" fill="#11aa00"></rect><rect width="6.5625" height="6.5625" x="18.541666666666668" y="28.26388888888889" rx="2.1875" ry="2.1875" fill="#11aa00"></rect><rect width="6.5625" height="6.5625" x="18.541666666666668" y="30.45138888888889" rx="2.1875" ry="2.1875" fill="#11aa00"></rect><rect width="6.5625" height="6.5625" x="20.729166666666668" y="28.26388888888889" rx="2.1875" ry="2.1875" fill="#11aa00"></rect><rect width="6.5625" height="6.5625" x="20.729166666666668" y="30.45138888888889" rx="2.1875" ry="2.1875" fill="#11aa00"></rect><rect width="6.5625" height="6.5625" x="18.541666666666668" y="37.986111111111114" rx="2.1875" ry="2.1875" fill="#11aa00"></rect><rect width="6.5625" height="6.5625" x="18.541666666666668" y="40.173611111111114" rx="2.1875" ry="2.1875" fill="#11aa00"></rect><rect width="6.5625" height="6.5625" x="20.729166666666668" y="37.986111111111114" rx="2.1875" ry="2.1875" fill="#11aa00"></rect><rect width="6.5625" height="6.5625" x="20.729166666666668" y="40.173611111111114" rx="2.1875" ry="2.1875" fill="#11aa00"></rect><rect width="6.5625" height="6.5625" x="18.541666666666668" y="47.708333333333336" rx="2.1875" ry="2.1875" fill="#11aa00"></rect><rect width="6.5625" height="6.5625" x="18.541666666666668" y="49.895833333333336" rx="2.1875" ry="2.1875" fill="#11aa00"></rect><rect width="6.5625" height="6.5625" x="20.729166666666668" y="47.708333333333336" rx="2.1875" ry="2.1875" fill="#11aa00"></rect><rect width="6.5625" height="6.5625" x="20.729166666666668" y="49.895833333333336" rx="2.1875" ry="2.1875" fill="#11aa00"></rect><rect width="6.5625" height="6.5625" x="18.541666666666668" y="57.43055555555556" rx="2.1875" ry="2.1875" fill="#888888"></rect><rect width="6.5625" height="6.5625" x="18.541666666666668" y="59.61805555555556" rx="0" ry="0" fill="#888888"></rect><rect width="6.5625" height="6.5625" x="20.729166666666668" y="57.43055555555556" rx="2.1875" ry="2.1875" fill="#888888"></rect><rect width="6.5625" height="6.5625" x="20.729166666666668" y="59.61805555555556" rx="0" ry="0" fill="#888888"></rect><rect width="6.5625" height="6.5625" x="28.26388888888889" y="8.819444444444445" rx="0" ry="0" fill="#888888"></rect><rect width="6.5625" height="6.5625" x="28.26388888888889" y="11.006944444444445" rx="2.1875" ry="2.1875" fill="#888888"></rect><rect width="6.5625" height="6.5625" x="30.45138888888889" y="8.819444444444445" rx="0" ry="0" fill="#888888"></rect><rect width="6.5625" height="6.5625" x="30.45138888888889" y="11.006944444444445" rx="2.1875" ry="2.1875" fill="#888888"></rect><rect width="6.5625" height="6.5625" x="28.26388888888889" y="18.541666666666668" rx="2.1875" ry="2.1875" fill="#11aa00"></rect><rect width="6.5625" height="6.5625" x="28.26388888888889" y="20.729166666666668" rx="2.1875" ry="2.1875" fill="#11aa00"></rect><rect width="6.5625" height="6.5625" x="30.45138888888889" y="18.541666666666668" rx="2.1875" ry="2.1875" fill="#11aa00"></rect><rect width="6.5625" height="6.5625" x="30.45138888888889" y="20.729166666666668" rx="2.1875" ry="2.1875" fill="#11aa00"></rect><rect width="6.5625" height="6.5625" x="28.26388888888889" y="28.26388888888889" rx="2.1875" ry="2.1875" fill="#11aa00"></rect><rect width="6.5625" height="6.5625" x="28.26388888888889" y="30.45138888888889" rx="2.1875" ry="2.1875" fill="#11aa00"></rect><rect width="6.5625" height="6.5625" x="30.45138888888889" y="28.26388888888889" rx="2.1875" ry="2.1875" fill="#11aa00"></rect><rect width="6.5625" height="6.5625" x="30.45138888888889" y="30.45138888888889" rx="2.1875" ry="2.1875" fill="#11aa00"></rect><rect width="6.5625" height="6.5625" x="28.26388888888889" y="37.986111111111114" rx="2.1875" ry="2.1875" fill="#11aa00"></rect><rect width="6.5625" height="6.5625" x="28.26388888888889" y="40.173611111111114" rx="2.1875" ry="2.1875" fill="#11aa00"></rect><rect width="6.5625" height="6.5625" x="30.45138888888889" y="37.986111111111114" rx="2.1875" ry="2.1875" fill="#11aa00"></rect><rect width="6.5625" height="6.5625" x="30.45138888888889" y="40.173611111111114" rx="2.1875" ry="2.1875" fill="#11aa00"></rect><rect width="6.5625" height="6.5625" x="28.26388888888889" y="47.708333333333336" rx="2.1875" ry="2.1875" fill="#11aa00"></rect><rect width="6.5625" height="6.5625" x="28.26388888888889" y="49.895833333333336" rx="2.1875" ry="2.1875" fill="#11aa00"></rect><rect width="6.5625" height="6.5625" x="30.45138888888889" y="47.708333333333336" rx="2.1875" ry="2.1875" fill="#11aa00"></rect><rect width="6.5625" height="6.5625" x="30.45138888888889" y="49.895833333333336" rx="2.1875" ry="2.1875" fill="#11aa00"></rect><rect width="6.5625" height="6.5625" x="28.26388888888889" y="57.43055555555556" rx="2.1875" ry="2.1875" fill="#888888"></rect><rect width="6.5625" height="6.5625" x="28.26388888888889" y="59.61805555555556" rx="0" ry="0" fill="#888888"></rect><rect width="6.5625" height="6.5625" x="30.45138888888889" y="57.43055555555556" rx="2.1875" ry="2.1875" fill="#888888"></rect><rect width="6.5625" height="6.5625" x="30.45138888888889" y="59.61805555555556" rx="0" ry="0" fill="#888888"></rect><rect width="6.5625" height="6.5625" x="37.986111111111114" y="8.819444444444445" rx="0" ry="0" fill="#888888"></rect><rect width="6.5625" height="6.5625" x="37.986111111111114" y="11.006944444444445" rx="2.1875" ry="2.1875" fill="#888888"></rect><rect width="6.5625" height="6.5625" x="40.173611111111114" y="8.819444444444445" rx="0" ry="0" fill="#888888"></rect><rect width="6.5625" height="6.5625" x="40.173611111111114" y="11.006944444444445" rx="2.1875" ry="2.1875" fill="#888888"></rect><rect width="6.5625" height="6.5625" x="37.986111111111114" y="18.541666666666668" rx="2.1875" ry="2.1875" fill="#11aa00"></rect><rect width="6.5625" height="6.5625" x="37.986111111111114" y="20.729166666666668" rx="2.1875" ry="2.1875" fill="#11aa00"></rect><rect width="6.5625" height="6.5625" x="40.173611111111114" y="18.541666666666668" rx="2.1875" ry="2.1875" fill="#11aa00"></rect><rect width="6.5625" height="6.5625" x="40.173611111111114" y="20.729166666666668" rx="2.1875" ry="2.1875" fill="#11aa00"></rect><rect width="6.5625" height="6.5625" x="37.986111111111114" y="28.26388888888889" rx="2.1875" ry="2.1875" fill="#11aa00"></rect><rect width="6.5625" height="6.5625" x="37.986111111111114" y="30.45138888888889" rx="2.1875" ry="2.1875" fill="#11aa00"></rect><rect width="6.5625" height="6.5625" x="40.173611111111114" y="28.26388888888889" rx="2.1875" ry="2.1875" fill="#11aa00"></rect><rect width="6.5625" height="6.5625" x="40.173611111111114" y="30.45138888888889" rx="2.1875" ry="2.1875" fill="#11aa00"></rect><rect width="6.5625" height="6.5625" x="37.986111111111114" y="37.986111111111114" rx="2.1875" ry="2.1875" fill="#11aa00"></rect><rect width="6.5625" height="6.5625" x="37.986111111111114" y="40.173611111111114" rx="2.1875" ry="2.1875" fill="#11aa00"></rect><rect width="6.5625" height="6.5625" x="40.173611111111114" y="37.986111111111114" rx="2.1875" ry="2.1875" fill="#11aa00"></rect><rect width="6.5625" height="6.5625" x="40.173611111111114" y="40.173611111111114" rx="2.1875" ry="2.1875" fill="#11aa00"></rect><rect width="6.5625" height="6.5625" x="37.986111111111114" y="47.708333333333336" rx="2.1875" ry="2.1875" fill="#11aa00"></rect><rect width="6.5625" height="6.5625" x="37.986111111111114" y="49.895833333333336" rx="2.1875" ry="2.1875" fill="#11aa00"></rect><rect width="6.5625" height="6.5625" x="40.173611111111114" y="47.708333333333336" rx="2.1875" ry="2.1875" fill="#11aa00"></rect><rect width="6.5625" height="6.5625" x="40.173611111111114" y="49.895833333333336" rx="2.1875" ry="2.1875" fill="#11aa00"></rect><rect width="6.5625" height="6.5625" x="37.986111111111114" y="57.43055555555556" rx="2.1875" ry="2.1875" fill="#888888"></rect><rect width="6.5625" height="6.5625" x="37.986111111111114" y="59.61805555555556" rx="0" ry="0" fill="#888888"></rect><rect width="6.5625" height="6.5625" x="40.173611111111114" y="57.43055555555556" rx="2.1875" ry="2.1875" fill="#888888"></rect><rect width="6.5625" height="6.5625" x="40.173611111111114" y="59.61805555555556" rx="0" ry="0" fill="#888888"></rect><rect width="6.5625" height="6.5625" x="47.708333333333336" y="8.819444444444445" rx="0" ry="0" fill="#888888"></rect><rect width="6.5625" height="6.5625" x="47.708333333333336" y="11.006944444444445" rx="2.1875" ry="2.1875" fill="#888888"></rect><rect width="6.5625" height="6.5625" x="49.895833333333336" y="8.819444444444445" rx="0" ry="0" fill="#888888"></rect><rect width="6.5625" height="6.5625" x="49.895833333333336" y="11.006944444444445" rx="2.1875" ry="2.1875" fill="#888888"></rect><rect width="6.5625" height="6.5625" x="47.708333333333336" y="18.541666666666668" rx="2.1875" ry="2.1875" fill="#11aa00"></rect><rect width="6.5625" height="6.5625" x="47.708333333333336" y="20.729166666666668" rx="2.1875" ry="2.1875" fill="#11aa00"></rect><rect width="6.5625" height="6.5625" x="49.895833333333336" y="18.541666666666668" rx="2.1875" ry="2.1875" fill="#11aa00"></rect><rect width="6.5625" height="6.5625" x="49.895833333333336" y="20.729166666666668" rx="2.1875" ry="2.1875" fill="#11aa00"></rect><rect width="6.5625" height="6.5625" x="47.708333333333336" y="28.26388888888889" rx="2.1875" ry="2.1875" fill="#ffff00"></rect><rect width="6.5625" height="6.5625" x="47.708333333333336" y="30.45138888888889" rx="2.1875" ry="2.1875" fill="#ffff00"></rect><rect width="6.5625" height="6.5625" x="49.895833333333336" y="28.26388888888889" rx="2.1875" ry="2.1875" fill="#ffff00"></rect><rect width="6.5625" height="6.5625" x="49.895833333333336" y="30.45138888888889" rx="2.1875" ry="2.1875" fill="#ffff00"></rect><rect width="6.5625" height="6.5625" x="47.708333333333336" y="37.986111111111114" rx="2.1875" ry="2.1875" fill="#ffff00"></rect><rect width="6.5625" height="6.5625" x="47.708333333333336" y="40.173611111111114" rx="2.1875" ry="2.1875" fill="#ffff00"></rect><rect width="6.5625" height="6.5625" x="49.895833333333336" y="37.986111111111114" rx="2.1875" ry="2.1875" fill="#ffff00"></rect><rect width="6.5625" height="6.5625" x="49.895833333333336" y="40.173611111111114" rx="2.1875" ry="2.1875" fill="#ffff00"></rect><rect width="6.5625" height="6.5625" x="47.708333333333336" y="47.708333333333336" rx="2.1875" ry="2.1875" fill="#ffff00"></rect><rect width="6.5625" height="6.5625" x="47.708333333333336" y="49.895833333333336" rx="2.1875" ry="2.1875" fill="#ffff00"></rect><rect width="6.5625" height="6.5625" x="49.895833333333336" y="47.708333333333336" rx="2.1875" ry="2.1875" fill="#ffff00"></rect><rect width="6.5625" height="6.5625" x="49.895833333333336" y="49.895833333333336" rx="2.1875" ry="2.1875" fill="#ffff00"></rect><rect width="6.5625" height="6.5625" x="47.708333333333336" y="57.43055555555556" rx="2.1875" ry="2.1875" fill="#888888"></rect><rect width="6.5625" height="6.5625" x="47.708333333333336" y="59.61805555555556" rx="0" ry="0" fill="#888888"></rect><rect width="6.5625" height="6.5625" x="49.895833333333336" y="57.43055555555556" rx="2.1875" ry="2.1875" fill="#888888"></rect><rect width="6.5625" height="6.5625" x="49.895833333333336" y="59.61805555555556" rx="0" ry="0" fill="#888888"></rect><rect width="6.5625" height="6.5625" x="57.43055555555556" y="8.819444444444445" rx="0" ry="0" fill="#888888"></rect><rect width="6.5625" height="6.5625" x="57.43055555555556" y="11.006944444444445" rx="1" ry="1" fill="#888888"></rect><rect width="6.5625" height="6.5625" x="59.61805555555556" y="8.819444444444445" rx="1" ry="1" fill="#888888"></rect><rect width="6.5625" height="6.5625" x="59.61805555555556" y="11.006944444444445" rx="0" ry="0" fill="#888888"></rect><rect width="6.5625" height="6.5625" x="57.43055555555556" y="18.541666666666668" rx="2.1875" ry="2.1875" fill="#888888"></rect><rect width="6.5625" height="6.5625" x="57.43055555555556" y="20.729166666666668" rx="2.1875" ry="2.1875" fill="#888888"></rect><rect width="6.5625" height="6.5625" x="59.61805555555556" y="18.541666666666668" rx="1" ry="1" fill="#888888"></rect><rect width="6.5625" height="6.5625" x="59.61805555555556" y="20.729166666666668" rx="0" ry="0" fill="#888888"></rect><rect width="6.5625" height="6.5625" x="57.43055555555556" y="28.26388888888889" rx="2.1875" ry="2.1875" fill="#888888"></rect><rect width="6.5625" height="6.5625" x="57.43055555555556" y="30.45138888888889" rx="2.1875" ry="2.1875" fill="#888888"></rect><rect width="6.5625" height="6.5625" x="59.61805555555556" y="28.26388888888889" rx="1" ry="1" fill="#888888"></rect><rect width="6.5625" height="6.5625" x="59.61805555555556" y="30.45138888888889" rx="0" ry="0" fill="#888888"></rect><rect width="6.5625" height="6.5625" x="57.43055555555556" y="37.986111111111114" rx="2.1875" ry="2.1875" fill="#888888"></rect><rect width="6.5625" height="6.5625" x="57.43055555555556" y="40.173611111111114" rx="2.1875" ry="2.1875" fill="#888888"></rect><rect width="6.5625" height="6.5625" x="59.61805555555556" y="37.986111111111114" rx="1" ry="1" fill="#888888"></rect><rect width="6.5625" height="6.5625" x="59.61805555555556" y="40.173611111111114" rx="0" ry="0" fill="#888888"></rect><rect width="6.5625" height="6.5625" x="57.43055555555556" y="47.708333333333336" rx="2.1875" ry="2.1875" fill="#888888"></rect><rect width="6.5625" height="6.5625" x="57.43055555555556" y="49.895833333333336" rx="2.1875" ry="2.1875" fill="#888888"></rect><rect width="6.5625" height="6.5625" x="59.61805555555556" y="47.708333333333336" rx="1" ry="1" fill="#888888"></rect><rect width="6.5625" height="6.5625" x="59.61805555555556" y="49.895833333333336" rx="0" ry="0" fill="#888888"></rect><rect width="6.5625" height="6.5625" x="57.43055555555556" y="57.43055555555556" rx="1" ry="1" fill="#888888"></rect><rect width="6.5625" height="6.5625" x="57.43055555555556" y="59.61805555555556" rx="0" ry="0" fill="#888888"></rect><rect width="6.5625" height="6.5625" x="59.61805555555556" y="57.43055555555556" rx="1" ry="1" fill="#888888"></rect><rect width="6.5625" height="6.5625" x="59.61805555555556" y="59.61805555555556" rx="0" ry="0" fill="#888888"></rect><rect width="58.33333333333333" height="8.333333333333334" x="8.333333333333334" y="0" fill="#000000"></rect><rect width="58.33333333333333" height="8.333333333333334" x="8.333333333333334" y="66.66666666666666" fill="#000000"></rect><rect width="8.333333333333334" height="58.33333333333333" x="0" y="8.333333333333334" fill="#000000"></rect><rect width="8.333333333333334" height="58.33333333333333" x="66.66666666666666" y="8.333333333333334" fill="#000000"></rect><rect width="8.75" height="7.361111111111112" x="8.819444444444445" y="0.48611111111111105" rx="1" ry="1" fill="#888888"></rect><rect width="8.75" height="7.361111111111112" x="8.819444444444445" y="67.15277777777777" rx="1" ry="1" fill="#888888"></rect><rect width="7.361111111111112" height="8.75" x="0.48611111111111105" y="8.819444444444445" rx="1" ry="1" fill="#888888"></rect><rect width="7.361111111111112" height="8.75" x="67.15277777777777" y="8.819444444444445" rx="1" ry="1" fill="#888888"></rect><rect width="8.75" height="7.361111111111112" x="18.541666666666668" y="0.48611111111111105" rx="1" ry="1" fill="#888888"></rect><rect width="8.75" height="7.361111111111112" x="18.541666666666668" y="67.15277777777777" rx="1" ry="1" fill="#888888"></rect><rect width="7.361111111111112" height="8.75" x="0.48611111111111105" y="18.541666666666668" rx="1" ry="1" fill="#888888"></rect><rect width="7.361111111111112" height="8.75" x="67.15277777777777" y="18.541666666666668" rx="1" ry="1" fill="#888888"></rect><rect width="8.75" height="7.361111111111112" x="28.26388888888889" y="0.48611111111111105" rx="1" ry="1" fill="#888888"></rect><rect width="8.75" height="7.361111111111112" x="28.26388888888889" y="67.15277777777777" rx="1" ry="1" fill="#888888"></rect><rect width="7.361111111111112" height="8.75" x="0.48611111111111105" y="28.26388888888889" rx="1" ry="1" fill="#888888"></rect><rect width="7.361111111111112" height="8.75" x="67.15277777777777" y="28.26388888888889" rx="1" ry="1" fill="#888888"></rect><rect width="8.75" height="7.361111111111112" x="37.986111111111114" y="0.48611111111111105" rx="1" ry="1" fill="#888888"></rect><rect width="8.75" height="7.361111111111112" x="37.986111111111114" y="67.15277777777777" rx="1" ry="1" fill="#888888"></rect><rect width="7.361111111111112" height="8.75" x="0.48611111111111105" y="37.986111111111114" rx="1" ry="1" fill="#888888"></rect><rect width="7.361111111111112" height="8.75" x="67.15277777777777" y="37.986111111111114" rx="1" ry="1" fill="#888888"></rect><rect width="8.75" height="7.361111111111112" x="47.708333333333336" y="0.48611111111111105" rx="1" ry="1" fill="#888888"></rect><rect width="8.75" height="7.361111111111112" x="47.708333333333336" y="67.15277777777777" rx="1" ry="1" fill="#888888"></rect><rect width="7.361111111111112" height="8.75" x="0.48611111111111105" y="47.708333333333336" rx="1" ry="1" fill="#888888"></rect><rect width="7.361111111111112" height="8.75" x="67.15277777777777" y="47.708333333333336" rx="1" ry="1" fill="#888888"></rect><rect width="8.75" height="7.361111111111112" x="57.43055555555556" y="0.48611111111111105" rx="1" ry="1" fill="#888888"></rect><rect width="8.75" height="7.361111111111112" x="57.43055555555556" y="67.15277777777777" rx="1" ry="1" fill="#888888"></rect><rect width="7.361111111111112" height="8.75" x="0.48611111111111105" y="57.43055555555556" rx="1" ry="1" fill="#888888"></rect><rect width="7.361111111111112" height="8.75" x="67.15277777777777" y="57.43055555555556" rx="1" ry="1" fill="#888888"></rect></svg></svg>