<svg xmlns="http://www.w3.org/2000/svg" version="1.1" xmlns:xlink="http://www.w3.org/1999/xlink" xmlns:svgjs="http://svgjs.dev/svgjs" width="75" height="75"><rect width="58.33333333333333" height="58.33333333333333" x="8.333333333333334" y="8.333333333333334" fill="#000000"></rect><rect width="13.125" height="13.125" x="9.305555555555555" y="9.305555555555555" rx="0" ry="0" fill="#ee8800"></rect><rect width="13.125" height="13.125" x="9.305555555555555" y="13.680555555555555" rx="0" ry="0" fill="#ee8800"></rect><rect width="13.125" height="13.125" x="13.680555555555555" y="9.305555555555555" rx="0" ry="0" fill="#ee8800"></rect><rect width="13.125" height="13.125" x="13.680555555555555" y="13.680555555555555" rx="1" ry="1" fill="#ee8800"></rect><rect width="13.125" height="13.125" x="9.305555555555555" y="28.75" rx="0" ry="0" fill="#ffff00"></rect><rect width="13.125" height="13.125" x="9.305555555555555" y="33.125" rx="0" ry="0" fill="#ffff00"></rect><rect width="13.125" height="13.125" x="13.680555555555555" y="28.75" rx="4.375" ry="4.375" fill="#ffff00"></rect><rect width="13.125" height="13.125" x="13.680555555555555" y="33.125" rx="4.375" ry="4.375" fill="#ffff00"></rect><rect width="13.125" height="13.125" x="9.305555555555555" y="48.19444444444444" rx="0" ry="0" fill="#ffff00"></rect><rect width="13.125" height="13.125" x="9.305555555555555" y="52.56944444444444" rx="0" ry="0" fill="#ffff00"></rect><rect width="13.125" height="13.125" x="13.680555555555555" y="48.19444444444444" rx="4.375" ry="4.375" fill="#ffff00"></rect><rect width="13.125" height="13.125" x="13.680555555555555" y="52.56944444444444" rx="0" ry="0" fill="#ffff00"></rect><rect width="13.125" height="13.125" x="28.75" y="9.305555555555555" rx="0" ry="0" fill="#ffff00"></rect><rect width="13.125" height="13.125" x="28.75" y="13.680555555555555" rx="4.375" ry="4.375" fill="#ffff00"></rect><rect width="13.125" height="13.125" x="33.125" y="9.305555555555555" rx="0" ry="0" fill="#ffff00"></rect><rect width="13.125" height="13.125" x="33.125" y="13.680555555555555" rx="4.375" ry="4.375" fill="#ffff00"></rect><rect width="13.125" height="13.125" x="28.75" y="28.75" rx="4.375" ry="4.375" fill="#ffff00"></rect><rect width="13.125" height="13.125" x="28.75" y="33.125" rx="4.375" ry="4.375" fill="#ffff00"></rect><rect width="13.125" height="13.125" x="33.125" y="28.75" rx="4.375" ry="4.375" fill="#ffff00"></rect><rect width="13.125" height="13.125" x="33.125" y="33.125" rx="4.375" ry="4.375" fill="#ffff00"></rect><rect width="13.125" height="13.125" x="28.75" y="48.19444444444444" rx="4.375" ry="4.375" fill="#ffff00"></rect><rect width="13.125" height="13.125" x="28.75" y="52.56944444444444" rx="0" ry="0" fill="#ffff00"></rect><rect width="13.125" height="13.125" x="33.125" y="48.19444444444444" rx="4.375" ry="4.375" fill="#ffff00"></rect><rect width="13.125" height="13.125" x="33.125" y="52.56944444444444" rx="0" ry="0" fill="#ffff00"></rect><rect width="13.125" height="13.125" x="48.19444444444444" y="9.305555555555555" rx="0" ry="0" fill="#2040d0"></rect><rect width="13.125" height="13.125" x="48.19444444444444" y="13.680555555555555" rx="1" ry="1" fill="#2040d0"></rect><rect width="13.125" height="13.125" x="52.56944444444444" y="9.305555555555555" rx="1" ry="1" fill="#2040d0"></rect><rect width="13.125" height="13.125" x="52.56944444444444" y="13.680555555555555" rx="0" ry="0" fill="#2040d0"></rect><rect width="13.125" height="13.125" x="48.19444444444444" y="28.75" rx="4.375" ry="4.375" fill="#ffff00"></rect><rect width="13.125" height="13.125" x="48.19444444444444" y="33.125" rx="4.375" ry="4.375" fill="#ffff00"></rect><rect width="13.125" height="13.125" x="52.56944444444444" y="28.75" rx="1" ry="1" fill="#ffff00"></rect><rect width="13.125" height="13.125" x="52.56944444444444" y="33.125" rx="0" ry="0" fill="#ffff00"></rect><rect width="13.125" height="13.125" x="48.19444444444444" y="48.19444444444444" rx="1" ry="1" fill="#d00000"></rect><rect width="13.125" height="13.125" x="48.19444444444444" y="52.56944444444444" rx="0" ry="0" fill="#d00000"></rect><rect width="13.125" height="13.125" x="52.56944444444444" y="48.19444444444444" rx="1" ry="1" fill="#d00000"></rect><rect width="13.125" height="13.125" x="52.56944444444444" y="52.56944444444444" rx="0" ry="0" fill="#d00000"></rect><rect width="58.33333333333333" height="8.333333333333334" x="8.333333333333334" y="0" fill="#000000"></rect><rect width="58.33333333333333" height="8.333333333333334" x="8.333333333333334" y="66.66666666666666" fill="#000000"></rect><rect width="8.333333333333334" height="58.33333333333333" x="0" y="8.333333333333334" fill="#000000"></rect><rect width="8.333333333333334" height="58.33333333333333" x="66.66666666666666" y="8.333333333333334" fill="#000000"></rect><rect width="17.5" height="6.388888888888889" x="9.305555555555555" y="0.9722222222222221" rx="1" ry="1" fill="#ffff00"></rect><rect width="17.5" height="6.388888888888889" x="9.305555555555555" y="67.63888888888889" rx="1" ry="1" fill="#11aa00"></rect><rect width="6.388888888888889" height="17.5" x="0.9722222222222221" y="9.305555555555555" rx="1" ry="1" fill="#11aa00"></rect><rect width="6.388888888888889" height="17.5" x="67.63888888888889" y="9.305555555555555" rx="1" ry="1" fill="#ffff00"></rect><rect width="17.5" height="6.388888888888889" x="28.75" y="0.9722222222222221" rx="1" ry="1" fill="#d00000"></rect><rect width="17.5" height="6.388888888888889" x="28.75" y="67.63888888888889" rx="1" ry="1" fill="#2040d0"></rect><rect width="6.388888888888889" height="17.5" x="0.9722222222222221" y="28.75" rx="1" ry="1" fill="#ee8800"></rect><rect width="6.388888888888889" height="17.5" x="67.63888888888889" y="28.75" rx="1" ry="1" fill="#11aa00"></rect><rect width="17.5" height="6.388888888888889" x="48.19444444444444" y="0.9722222222222221" rx="1" ry="1" fill="#ee8800"></rect><rect width="17.5" height="6.388888888888889" x="48.19444444444444" y="67.63888888888889" rx="1" ry="1" fill="#ffff00"></rect><rect width="6.388888888888889" height="17.5" x="0.9722222222222221" y="48.19444444444444" rx="1" ry="1" fill="#d00000"></rect><rect width="6.388888888888889" height="17.5" x="67.63888888888889" y="48.19444444444444" rx="1" ry="1" fill="#2040d0"></rect></svg>