<svg xmlns="http://www.w3.org/2000/svg" version="1.1" xmlns:xlink="http://www.w3.org/1999/xlink" xmlns:svgjs="http://svgjs.dev/svgjs" width="75" height="75"><rect width="51.92307692307692" height="51.92307692307692" x="11.538461538461538" y="11.538461538461538" fill="#000000"></rect><rect width="17.52403846153846" height="17.52403846153846" x="12.836538461538462" y="12.836538461538462" rx="0" ry="0" fill="#ffff00"></rect><rect width="17.52403846153846" height="17.52403846153846" x="12.836538461538462" y="18.677884615384617" rx="0" ry="0" fill="#ffff00"></rect><rect width="17.52403846153846" height="17.52403846153846" x="18.677884615384617" y="12.836538461538462" rx="0" ry="0" fill="#ffff00"></rect><rect width="17.52403846153846" height="17.52403846153846" x="18.677884615384617" y="18.677884615384617" rx="5.841346153846153" ry="5.841346153846153" fill="#ffff00"></rect><rect width="17.52403846153846" height="17.52403846153846" x="12.836538461538462" y="38.79807692307692" rx="0" ry="0" fill="#d00000"></rect><rect width="17.52403846153846" height="17.52403846153846" x="12.836538461538462" y="44.63942307692307" rx="0" ry="0" fill="#d00000"></rect><rect width="17.52403846153846" height="17.52403846153846" x="18.677884615384617" y="38.79807692307692" rx="5.841346153846153" ry="5.841346153846153" fill="#d00000"></rect><rect width="17.52403846153846" height="17.52403846153846" x="18.677884615384617" y="44.63942307692307" rx="0" ry="0" fill="#d00000"></rect><rect width="17.52403846153846" height="17.52403846153846" x="38.79807692307692" y="12.836538461538462" rx="0" ry="0" fill="#ee8800"></rect><rect width="17.52403846153846" height="17.52403846153846" x="38.79807692307692" y="18.677884615384617" rx="5.841346153846153" ry="5.841346153846153" fill="#ee8800"></rect><rect width="17.52403846153846" height="17.52403846153846" x="44.63942307692307" y="12.836538461538462" rx="0" ry="0" fill="#ee8800"></rect><rect width="17.52403846153846" height="17.52403846153846" x="44.63942307692307" y="18.677884615384617" rx="0" ry="0" fill="#ee8800"></rect><rect width="17.52403846153846" height="17.52403846153846" x="38.79807692307692" y="38.79807692307692" rx="5.841346153846153" ry="5.841346153846153" fill="#2040d0"></rect><rect width="17.52403846153846" height="17.52403846153846" x="38.79807692307692" y="44.63942307692307" rx="0" ry="0" fill="#2040d0"></rect><rect width="17.52403846153846" height="17.52403846153846" x="44.63942307692307" y="38.79807692307692" rx="0" ry="0" fill="#2040d0"></rect><rect width="17.52403846153846" height="17.52403846153846" x="44.63942307692307" y="44.63942307692307" rx="0" ry="0" fill="#2040d0"></rect><rect width="51.92307692307692" height="11.538461538461538" x="11.538461538461538" y="0" fill="#000000"></rect><rect width="51.92307692307692" height="11.538461538461538" x="11.538461538461538" y="63.46153846153846" fill="#000000"></rect><rect width="11.538461538461538" height="51.92307692307692" x="0" y="11.538461538461538" fill="#000000"></rect><rect width="11.538461538461538" height="51.92307692307692" x="63.46153846153846" y="11.538461538461538" fill="#000000"></rect><rect width="23.365384615384613" height="8.942307692307693" x="12.836538461538462" y="1.298076923076923" rx="1" ry="1" fill="#11aa00"></rect><rect width="23.365384615384613" height="8.942307692307693" x="12.836538461538462" y="64.75961538461539" rx="1" ry="1" fill="#ffff00"></rect><rect width="8.942307692307693" height="23.365384615384613" x="1.298076923076923" y="12.836538461538462" rx="1" ry="1" fill="#ee8800"></rect><rect width="8.942307692307693" height="23.365384615384613" x="64.75961538461539" y="12.836538461538462" rx="1" ry="1" fill="#2040d0"></rect><rect width="23.365384615384613" height="8.942307692307693" x="38.79807692307692" y="1.298076923076923" rx="1" ry="1" fill="#ffff00"></rect><rect width="23.365384615384613" height="8.942307692307693" x="38.79807692307692" y="64.75961538461539" rx="1" ry="1" fill="#d00000"></rect><rect width="8.942307692307693" height="23.365384615384613" x="1.298076923076923" y="38.79807692307692" rx="1" ry="1" fill="#11aa00"></rect><rect width="8.942307692307693" height="23.365384615384613" x="64.75961538461539" y="38.79807692307692" rx="1" ry="1" fill="#ffff00"></rect></svg>