<svg xmlns="http://www.w3.org/2000/svg" version="1.1" xmlns:xlink="http://www.w3.org/1999/xlink" xmlns:svgjs="http://svgjs.dev/svgjs" width="75" height="150"><polygon points="37.5,37.5 37.88177139081558,15.628331668453942 52.26562500000001,11.925187294490794 56.25053470285871,26.233542111342565" fill="#888888" stroke-width="1.5" stroke="#000000"></polygon><polygon points="37.88177139081558,15.628331668453942 52.26562500000001,11.925187294490794 57.03835227272728,3.658581167457516 37.88177139081558,8.810149850272124" fill="#888888" stroke-width="1.5" stroke="#000000"></polygon><polygon points="52.26562500000001,11.925187294490794 56.25053470285871,26.233542111342565 62.15525336502534,22.824451202251655 57.03835227272728,3.658581167457516" fill="#888888" stroke-width="1.5" stroke="#000000"></polygon><polygon points="37.5,37.5 56.63230609367429,26.89478955711138 67.03125,37.5 56.63230609367429,48.10521044288862" fill="#888888" stroke-width="1.5" stroke="#000000"></polygon><polygon points="56.63230609367429,26.89478955711138 67.03125,37.5 76.57670454545455,37.5 62.53702475584092,23.48569864802047" fill="#888888" stroke-width="1.5" stroke="#000000"></polygon><polygon points="67.03125,37.5 56.63230609367429,48.10521044288862 62.53702475584092,51.514301351979526 76.57670454545455,37.5" fill="#888888" stroke-width="1.5" stroke="#000000"></polygon><polygon points="37.5,37.5 56.25053470285871,48.766457888657435 52.26562500000001,63.0748127055092 37.88177139081558,59.37166833154606" fill="#888888" stroke-width="1.5" stroke="#000000"></polygon><polygon points="56.25053470285871,48.766457888657435 52.26562500000001,63.0748127055092 57.03835227272728,71.34141883254247 62.15525336502534,52.17554879774834" fill="#888888" stroke-width="1.5" stroke="#000000"></polygon><polygon points="52.26562500000001,63.0748127055092 37.88177139081558,59.37166833154606 37.88177139081558,66.18985014972787 57.03835227272728,71.34141883254247" fill="#888888" stroke-width="1.5" stroke="#000000"></polygon><polygon points="37.5,37.5 26.233542111342572,56.250534702858715 37.88177139081558,59.37166833154606" fill="#888888" stroke-width="1.5" stroke="#000000"></polygon><polygon points="26.233542111342572,56.250534702858715 37.88177139081558,59.37166833154606 37.76277771056137,66.18881170761236 22.928021973299366,62.21385088790005" fill="#888888" stroke-width="1.5" stroke="#000000"></polygon><polygon points="37.5,37.5 26.233542111342572,56.250534702858715 11.925187294490797,52.265625000000014 15.628331668453942,37.88177139081557" fill="#888888" stroke-width="1.5" stroke="#000000"></polygon><polygon points="26.233542111342572,56.250534702858715 11.925187294490797,52.265625000000014 3.6585811674575215,57.03835227272729 22.824451202251666,62.155253365025345" fill="#888888" stroke-width="1.5" stroke="#000000"></polygon><polygon points="11.925187294490797,52.265625000000014 15.628331668453942,37.88177139081557 8.810149850272124,37.88177139081557 3.6585811674575215,57.03835227272729" fill="#888888" stroke-width="1.5" stroke="#000000"></polygon><polygon points="37.5,37.5 18.74946529714129,26.233542111342572 15.628331668453942,37.88177139081557" fill="#888888" stroke-width="1.5" stroke="#000000"></polygon><polygon points="18.74946529714129,26.233542111342572 15.628331668453942,37.88177139081557 8.811188292387637,37.762777710561366 12.786149112099952,22.928021973299366" fill="#888888" stroke-width="1.5" stroke="#000000"></polygon><polygon points="37.5,37.5 18.74946529714129,26.233542111342572 22.734374999999986,11.9251872944908 37.11822860918442,15.628331668453942" fill="#888888" stroke-width="1.5" stroke="#000000"></polygon><polygon points="18.74946529714129,26.233542111342572 22.734374999999986,11.9251872944908 17.96164772727271,3.658581167457525 12.84474663497466,22.824451202251666" fill="#888888" stroke-width="1.5" stroke="#000000"></polygon><polygon points="22.734374999999986,11.9251872944908 37.11822860918442,15.628331668453942 37.11822860918442,8.810149850272124 17.96164772727271,3.658581167457525" fill="#888888" stroke-width="1.5" stroke="#000000"></polygon><line x1="36.927342913776634" y1="70.30750249731909" x2="38.07265708622335" y2="4.692497502680908" stroke-width="2" stroke="#d00000"></line><polygon points="37.5,37.5 37.88177139081558,15.628331668453942 52.26562500000001,11.925187294490794 56.25053470285871,26.233542111342565" fill="#222222" stroke-width="1.5" stroke="#000000"></polygon><polygon points="37.88177139081558,15.628331668453942 52.26562500000001,11.925187294490794 57.03835227272728,3.658581167457516 37.88177139081558,8.810149850272124" fill="#ee8800" stroke-width="1.5" stroke="#000000"></polygon><polygon points="52.26562500000001,11.925187294490794 56.25053470285871,26.233542111342565 62.15525336502534,22.824451202251655 57.03835227272728,3.658581167457516" fill="#11aa00" stroke-width="1.5" stroke="#000000"></polygon><polygon points="37.5,37.5 59.37166833154606,37.88177139081558 56.25053470285871,26.233542111342565" fill="#222222" stroke-width="1.5" stroke="#000000"></polygon><polygon points="59.37166833154606,37.88177139081558 56.25053470285871,26.233542111342565 62.213850887900044,22.92802197329936 66.18881170761236,37.76277771056137" fill="#11aa00" stroke-width="1.5" stroke="#000000"></polygon><polygon points="37.5,37.5 56.25053470285871,48.766457888657435 59.37166833154606,37.11822860918442" fill="#ffffff" stroke-width="1.5" stroke="#000000"></polygon><polygon points="56.25053470285871,48.766457888657435 59.37166833154606,37.11822860918442 66.18881170761236,37.23722228943863 62.213850887900044,52.07197802670064" fill="#d00000" stroke-width="1.5" stroke="#000000"></polygon><polygon points="37.5,37.5 48.10521044288863,56.63230609367428 56.63230609367429,48.10521044288862" fill="#222222" stroke-width="1.5" stroke="#000000"></polygon><polygon points="48.10521044288863,56.63230609367428 56.63230609367429,48.10521044288862 62.47662859846142,51.61683368091172 51.616833680911725,62.47662859846141" fill="#d00000" stroke-width="1.5" stroke="#000000"></polygon><polygon points="37.5,37.5 37.11822860918442,59.37166833154606 48.76645788865744,56.2505347028587" fill="#ffffff" stroke-width="1.5" stroke="#000000"></polygon><polygon points="37.11822860918442,59.37166833154606 48.76645788865744,56.2505347028587 52.07197802670065,62.21385088790004 37.23722228943863,66.18881170761236" fill="#ee8800" stroke-width="1.5" stroke="#000000"></polygon><polygon points="37.5,37.5 26.233542111342572,56.250534702858715 37.88177139081558,59.37166833154606" fill="#222222" stroke-width="1.5" stroke="#000000"></polygon><polygon points="26.233542111342572,56.250534702858715 37.88177139081558,59.37166833154606 37.76277771056137,66.18881170761236 22.928021973299366,62.21385088790005" fill="#2040d0" stroke-width="1.5" stroke="#000000"></polygon><polygon points="37.5,37.5 26.233542111342572,56.250534702858715 11.925187294490797,52.265625000000014 15.628331668453942,37.88177139081557" fill="#222222" stroke-width="1.5" stroke="#000000"></polygon><polygon points="26.233542111342572,56.250534702858715 11.925187294490797,52.265625000000014 3.6585811674575215,57.03835227272729 22.824451202251666,62.155253365025345" fill="#2040d0" stroke-width="1.5" stroke="#000000"></polygon><polygon points="11.925187294490797,52.265625000000014 15.628331668453942,37.88177139081557 8.810149850272124,37.88177139081557 3.6585811674575215,57.03835227272729" fill="#ee8800" stroke-width="1.5" stroke="#000000"></polygon><polygon points="37.5,37.5 18.74946529714129,26.233542111342572 15.628331668453942,37.88177139081557" fill="#222222" stroke-width="1.5" stroke="#000000"></polygon><polygon points="18.74946529714129,26.233542111342572 15.628331668453942,37.88177139081557 8.811188292387637,37.762777710561366 12.786149112099952,22.928021973299366" fill="#ee8800" stroke-width="1.5" stroke="#000000"></polygon><polygon points="37.5,37.5 18.74946529714129,26.233542111342572 22.734374999999986,11.9251872944908 37.11822860918442,15.628331668453942" fill="#222222" stroke-width="1.5" stroke="#000000"></polygon><polygon points="18.74946529714129,26.233542111342572 22.734374999999986,11.9251872944908 17.96164772727271,3.658581167457525 12.84474663497466,22.824451202251666" fill="#11aa00" stroke-width="1.5" stroke="#000000"></polygon><polygon points="22.734374999999986,11.9251872944908 37.11822860918442,15.628331668453942 37.11822860918442,8.810149850272124 17.96164772727271,3.658581167457525" fill="#d00000" stroke-width="1.5" stroke="#000000"></polygon><line x1="36.927342913776634" y1="70.30750249731909" x2="38.07265708622335" y2="4.692497502680908" stroke-width="2" stroke="#d00000"></line><polygon points="37.5,112.5 37.88177139081558,90.62833166845394 52.26562500000001,86.9251872944908 56.25053470285871,101.23354211134256" fill="#888888" stroke-width="1.5" stroke="#000000"></polygon><polygon points="37.88177139081558,90.62833166845394 52.26562500000001,86.9251872944908 57.03835227272728,78.65858116745753 37.88177139081558,83.81014985027213" fill="#888888" stroke-width="1.5" stroke="#000000"></polygon><polygon points="52.26562500000001,86.9251872944908 56.25053470285871,101.23354211134256 62.15525336502534,97.82445120225165 57.03835227272728,78.65858116745753" fill="#888888" stroke-width="1.5" stroke="#000000"></polygon><polygon points="37.5,112.5 59.37166833154606,112.88177139081557 56.25053470285871,101.23354211134256" fill="#888888" stroke-width="1.5" stroke="#000000"></polygon><polygon points="59.37166833154606,112.88177139081557 56.25053470285871,101.23354211134256 62.213850887900044,97.92802197329935 66.18881170761236,112.76277771056137" fill="#888888" stroke-width="1.5" stroke="#000000"></polygon><polygon points="37.5,112.5 59.37166833154606,112.88177139081557 63.07481270550921,127.265625 48.76645788865744,131.25053470285872" fill="#888888" stroke-width="1.5" stroke="#000000"></polygon><polygon points="59.37166833154606,112.88177139081557 63.07481270550921,127.265625 71.34141883254249,132.03835227272728 66.18985014972787,112.88177139081557" fill="#888888" stroke-width="1.5" stroke="#000000"></polygon><polygon points="63.07481270550921,127.265625 48.76645788865744,131.25053470285872 52.17554879774835,137.15525336502535 71.34141883254249,132.03835227272728" fill="#888888" stroke-width="1.5" stroke="#000000"></polygon><polygon points="37.5,112.5 37.11822860918442,134.37166833154606 48.76645788865744,131.25053470285872" fill="#888888" stroke-width="1.5" stroke="#000000"></polygon><polygon points="37.11822860918442,134.37166833154606 48.76645788865744,131.25053470285872 52.07197802670065,137.21385088790004 37.23722228943863,141.18881170761236" fill="#888888" stroke-width="1.5" stroke="#000000"></polygon><polygon points="37.5,112.5 26.233542111342572,131.25053470285872 37.88177139081558,134.37166833154606" fill="#888888" stroke-width="1.5" stroke="#000000"></polygon><polygon points="26.233542111342572,131.25053470285872 37.88177139081558,134.37166833154606 37.76277771056137,141.18881170761236 22.928021973299366,137.21385088790004" fill="#888888" stroke-width="1.5" stroke="#000000"></polygon><polygon points="37.5,112.5 18.367693906325723,123.10521044288863 26.89478955711138,131.6323060936743" fill="#888888" stroke-width="1.5" stroke="#000000"></polygon><polygon points="18.367693906325723,123.10521044288863 26.89478955711138,131.6323060936743 23.383166319088286,137.47662859846142 12.523371401538594,126.61683368091172" fill="#888888" stroke-width="1.5" stroke="#000000"></polygon><polygon points="37.5,112.5 15.628331668453942,112.11822860918443 18.749465297141295,123.76645788865744" fill="#888888" stroke-width="1.5" stroke="#000000"></polygon><polygon points="15.628331668453942,112.11822860918443 18.749465297141295,123.76645788865744 12.786149112099963,127.07197802670065 8.811188292387637,112.23722228943863" fill="#888888" stroke-width="1.5" stroke="#000000"></polygon><polygon points="37.5,112.5 18.74946529714129,101.23354211134257 15.628331668453942,112.88177139081557" fill="#888888" stroke-width="1.5" stroke="#000000"></polygon><polygon points="18.74946529714129,101.23354211134257 15.628331668453942,112.88177139081557 8.811188292387637,112.76277771056137 12.786149112099952,97.92802197329937" fill="#888888" stroke-width="1.5" stroke="#000000"></polygon><polygon points="37.5,112.5 18.74946529714129,101.23354211134257 22.734374999999986,86.9251872944908 37.11822860918442,90.62833166845394" fill="#888888" stroke-width="1.5" stroke="#000000"></polygon><polygon points="18.74946529714129,101.23354211134257 22.734374999999986,86.9251872944908 17.96164772727271,78.65858116745753 12.84474663497466,97.82445120225167" fill="#888888" stroke-width="1.5" stroke="#000000"></polygon><polygon points="22.734374999999986,86.9251872944908 37.11822860918442,90.62833166845394 37.11822860918442,83.81014985027213 17.96164772727271,78.65858116745753" fill="#888888" stroke-width="1.5" stroke="#000000"></polygon><line x1="36.927342913776634" y1="145.3075024973191" x2="38.07265708622335" y2="79.69249750268091" stroke-width="2" stroke="#d00000"></line><polygon points="37.5,112.5 37.88177139081558,90.62833166845394 52.26562500000001,86.9251872944908 56.25053470285871,101.23354211134256" fill="#ffffff" stroke-width="1.5" stroke="#000000"></polygon><polygon points="37.88177139081558,90.62833166845394 52.26562500000001,86.9251872944908 57.03835227272728,78.65858116745753 37.88177139081558,83.81014985027213" fill="#d00000" stroke-width="1.5" stroke="#000000"></polygon><polygon points="52.26562500000001,86.9251872944908 56.25053470285871,101.23354211134256 62.15525336502534,97.82445120225165 57.03835227272728,78.65858116745753" fill="#11aa00" stroke-width="1.5" stroke="#000000"></polygon><polygon points="37.5,112.5 59.37166833154606,112.88177139081557 56.25053470285871,101.23354211134256" fill="#ffffff" stroke-width="1.5" stroke="#000000"></polygon><polygon points="59.37166833154606,112.88177139081557 56.25053470285871,101.23354211134256 62.213850887900044,97.92802197329935 66.18881170761236,112.76277771056137" fill="#11aa00" stroke-width="1.5" stroke="#000000"></polygon><polygon points="37.5,112.5 59.37166833154606,112.88177139081557 63.07481270550921,127.265625 48.76645788865744,131.25053470285872" fill="#ffffff" stroke-width="1.5" stroke="#000000"></polygon><polygon points="59.37166833154606,112.88177139081557 63.07481270550921,127.265625 71.34141883254249,132.03835227272728 66.18985014972787,112.88177139081557" fill="#11aa00" stroke-width="1.5" stroke="#000000"></polygon><polygon points="63.07481270550921,127.265625 48.76645788865744,131.25053470285872 52.17554879774835,137.15525336502535 71.34141883254249,132.03835227272728" fill="#ee8800" stroke-width="1.5" stroke="#000000"></polygon><polygon points="37.5,112.5 37.11822860918442,134.37166833154606 48.76645788865744,131.25053470285872" fill="#ffffff" stroke-width="1.5" stroke="#000000"></polygon><polygon points="37.11822860918442,134.37166833154606 48.76645788865744,131.25053470285872 52.07197802670065,137.21385088790004 37.23722228943863,141.18881170761236" fill="#2040d0" stroke-width="1.5" stroke="#000000"></polygon><polygon points="37.5,112.5 37.11822860918442,134.37166833154606 22.734375000000007,138.0748127055092 18.749465297141295,123.76645788865744" fill="#ffffff" stroke-width="1.5" stroke="#000000"></polygon><polygon points="37.11822860918442,134.37166833154606 22.734375000000007,138.0748127055092 17.961647727272737,146.34141883254247 37.11822860918442,141.18985014972787" fill="#ee8800" stroke-width="1.5" stroke="#000000"></polygon><polygon points="22.734375000000007,138.0748127055092 18.749465297141295,123.76645788865744 12.844746634974669,127.17554879774835 17.961647727272737,146.34141883254247" fill="#2040d0" stroke-width="1.5" stroke="#000000"></polygon><polygon points="37.5,112.5 18.367693906325723,123.10521044288863 7.9687499999999964,112.5 18.367693906325716,101.89478955711138" fill="#222222" stroke-width="1.5" stroke="#000000"></polygon><polygon points="18.367693906325723,123.10521044288863 7.9687499999999964,112.5 -1.5767045454545485,112.5 12.462975244159097,126.51430135197954" fill="#d00000" stroke-width="1.5" stroke="#000000"></polygon><polygon points="7.9687499999999964,112.5 18.367693906325716,101.89478955711138 12.462975244159088,98.48569864802047 -1.5767045454545485,112.5" fill="#2040d0" stroke-width="1.5" stroke="#000000"></polygon><polygon points="37.5,112.5 18.74946529714129,101.23354211134257 22.734374999999986,86.9251872944908 37.11822860918442,90.62833166845394" fill="#ffffff" stroke-width="1.5" stroke="#000000"></polygon><polygon points="18.74946529714129,101.23354211134257 22.734374999999986,86.9251872944908 17.96164772727271,78.65858116745753 12.84474663497466,97.82445120225167" fill="#2040d0" stroke-width="1.5" stroke="#000000"></polygon><polygon points="22.734374999999986,86.9251872944908 37.11822860918442,90.62833166845394 37.11822860918442,83.81014985027213 17.96164772727271,78.65858116745753" fill="#d00000" stroke-width="1.5" stroke="#000000"></polygon><line x1="36.927342913776634" y1="145.3075024973191" x2="38.07265708622335" y2="79.69249750268091" stroke-width="2" stroke="#d00000"></line></svg>