<svg xmlns="http://www.w3.org/2000/svg" version="1.1" xmlns:xlink="http://www.w3.org/1999/xlink" xmlns:svgjs="http://svgjs.dev/svgjs" width="75" height="150"><polygon points="37.5,37.5 48.76645788865744,18.749465297141295 37.11822860918442,15.628331668453942" fill="#888888" stroke-width="1.5" stroke="#000000"></polygon><polygon points="48.76645788865744,18.749465297141295 37.11822860918442,15.628331668453942 37.23722228943863,8.811188292387637 52.07197802670065,12.78614911209996" fill="#888888" stroke-width="1.5" stroke="#000000"></polygon><polygon points="37.5,37.5 56.63230609367429,26.89478955711138 48.10521044288863,18.36769390632572" fill="#888888" stroke-width="1.5" stroke="#000000"></polygon><polygon points="56.63230609367429,26.89478955711138 48.10521044288863,18.36769390632572 51.616833680911725,12.52337140153859 62.47662859846142,23.383166319088282" fill="#888888" stroke-width="1.5" stroke="#000000"></polygon><polygon points="37.5,37.5 59.37166833154606,37.88177139081558 56.25053470285871,26.233542111342565" fill="#888888" stroke-width="1.5" stroke="#000000"></polygon><polygon points="59.37166833154606,37.88177139081558 56.25053470285871,26.233542111342565 62.213850887900044,22.92802197329936 66.18881170761236,37.76277771056137" fill="#888888" stroke-width="1.5" stroke="#000000"></polygon><polygon points="37.5,37.5 59.37166833154606,37.88177139081558 63.07481270550921,52.265625 48.76645788865744,56.2505347028587" fill="#888888" stroke-width="1.5" stroke="#000000"></polygon><polygon points="59.37166833154606,37.88177139081558 63.07481270550921,52.265625 71.34141883254249,57.03835227272727 66.18985014972787,37.88177139081558" fill="#888888" stroke-width="1.5" stroke="#000000"></polygon><polygon points="63.07481270550921,52.265625 48.76645788865744,56.2505347028587 52.17554879774835,62.15525336502533 71.34141883254249,57.03835227272727" fill="#888888" stroke-width="1.5" stroke="#000000"></polygon><polygon points="37.5,37.5 37.11822860918442,59.37166833154606 48.76645788865744,56.2505347028587" fill="#888888" stroke-width="1.5" stroke="#000000"></polygon><polygon points="37.11822860918442,59.37166833154606 48.76645788865744,56.2505347028587 52.07197802670065,62.21385088790004 37.23722228943863,66.18881170761236" fill="#888888" stroke-width="1.5" stroke="#000000"></polygon><polygon points="37.5,37.5 37.11822860918442,59.37166833154606 22.734375000000007,63.07481270550921 18.749465297141295,48.76645788865744" fill="#888888" stroke-width="1.5" stroke="#000000"></polygon><polygon points="37.11822860918442,59.37166833154606 22.734375000000007,63.07481270550921 17.961647727272737,71.34141883254249 37.11822860918442,66.18985014972787" fill="#888888" stroke-width="1.5" stroke="#000000"></polygon><polygon points="22.734375000000007,63.07481270550921 18.749465297141295,48.76645788865744 12.844746634974669,52.175548797748355 17.961647727272737,71.34141883254249" fill="#888888" stroke-width="1.5" stroke="#000000"></polygon><polygon points="37.5,37.5 18.367693906325723,48.105210442888634 7.9687499999999964,37.50000000000001 18.367693906325716,26.89478955711138" fill="#888888" stroke-width="1.5" stroke="#000000"></polygon><polygon points="18.367693906325723,48.105210442888634 7.9687499999999964,37.50000000000001 -1.5767045454545485,37.50000000000001 12.462975244159097,51.51430135197955" fill="#888888" stroke-width="1.5" stroke="#000000"></polygon><polygon points="7.9687499999999964,37.50000000000001 18.367693906325716,26.89478955711138 12.462975244159088,23.485698648020474 -1.5767045454545485,37.50000000000001" fill="#888888" stroke-width="1.5" stroke="#000000"></polygon><polygon points="37.5,37.5 18.74946529714129,26.233542111342572 22.734374999999986,11.9251872944908 37.11822860918442,15.628331668453942" fill="#888888" stroke-width="1.5" stroke="#000000"></polygon><polygon points="18.74946529714129,26.233542111342572 22.734374999999986,11.9251872944908 17.96164772727271,3.658581167457525 12.84474663497466,22.824451202251666" fill="#888888" stroke-width="1.5" stroke="#000000"></polygon><polygon points="22.734374999999986,11.9251872944908 37.11822860918442,15.628331668453942 37.11822860918442,8.810149850272124 17.96164772727271,3.658581167457525" fill="#888888" stroke-width="1.5" stroke="#000000"></polygon><line x1="36.927342913776634" y1="70.30750249731909" x2="38.07265708622335" y2="4.692497502680908" stroke-width="2" stroke="#d00000"></line><polygon points="37.5,37.5 48.76645788865744,18.749465297141295 37.11822860918442,15.628331668453942" fill="#ffffff" stroke-width="1.5" stroke="#000000"></polygon><polygon points="48.76645788865744,18.749465297141295 37.11822860918442,15.628331668453942 37.23722228943863,8.811188292387637 52.07197802670065,12.78614911209996" fill="#2040d0" stroke-width="1.5" stroke="#000000"></polygon><polygon points="37.5,37.5 48.76645788865744,18.749465297141295 63.07481270550921,22.734375 59.37166833154606,37.11822860918442" fill="#ffffff" stroke-width="1.5" stroke="#000000"></polygon><polygon points="48.76645788865744,18.749465297141295 63.07481270550921,22.734375 71.34141883254249,17.961647727272727 52.17554879774835,12.844746634974669" fill="#ee8800" stroke-width="1.5" stroke="#000000"></polygon><polygon points="63.07481270550921,22.734375 59.37166833154606,37.11822860918442 66.18985014972787,37.11822860918442 71.34141883254249,17.961647727272727" fill="#2040d0" stroke-width="1.5" stroke="#000000"></polygon><polygon points="37.5,37.5 59.37166833154606,37.88177139081558 63.07481270550921,52.265625 48.76645788865744,56.2505347028587" fill="#222222" stroke-width="1.5" stroke="#000000"></polygon><polygon points="59.37166833154606,37.88177139081558 63.07481270550921,52.265625 71.34141883254249,57.03835227272727 66.18985014972787,37.88177139081558" fill="#2040d0" stroke-width="1.5" stroke="#000000"></polygon><polygon points="63.07481270550921,52.265625 48.76645788865744,56.2505347028587 52.17554879774835,62.15525336502533 71.34141883254249,57.03835227272727" fill="#ee8800" stroke-width="1.5" stroke="#000000"></polygon><polygon points="37.5,37.5 37.11822860918442,59.37166833154606 48.76645788865744,56.2505347028587" fill="#222222" stroke-width="1.5" stroke="#000000"></polygon><polygon points="37.11822860918442,59.37166833154606 48.76645788865744,56.2505347028587 52.07197802670065,62.21385088790004 37.23722228943863,66.18881170761236" fill="#ee8800" stroke-width="1.5" stroke="#000000"></polygon><polygon points="37.5,37.5 26.233542111342572,56.250534702858715 37.88177139081558,59.37166833154606" fill="#222222" stroke-width="1.5" stroke="#000000"></polygon><polygon points="26.233542111342572,56.250534702858715 37.88177139081558,59.37166833154606 37.76277771056137,66.18881170761236 22.928021973299366,62.21385088790005" fill="#11aa00" stroke-width="1.5" stroke="#000000"></polygon><polygon points="37.5,37.5 18.367693906325723,48.105210442888634 26.89478955711138,56.63230609367429" fill="#ffffff" stroke-width="1.5" stroke="#000000"></polygon><polygon points="18.367693906325723,48.105210442888634 26.89478955711138,56.63230609367429 23.383166319088286,62.47662859846142 12.523371401538594,51.61683368091173" fill="#11aa00" stroke-width="1.5" stroke="#000000"></polygon><polygon points="37.5,37.5 18.367693906325723,48.105210442888634 7.9687499999999964,37.50000000000001 18.367693906325716,26.89478955711138" fill="#ffffff" stroke-width="1.5" stroke="#000000"></polygon><polygon points="18.367693906325723,48.105210442888634 7.9687499999999964,37.50000000000001 -1.5767045454545485,37.50000000000001 12.462975244159097,51.51430135197955" fill="#11aa00" stroke-width="1.5" stroke="#000000"></polygon><polygon points="7.9687499999999964,37.50000000000001 18.367693906325716,26.89478955711138 12.462975244159088,23.485698648020474 -1.5767045454545485,37.50000000000001" fill="#ee8800" stroke-width="1.5" stroke="#000000"></polygon><polygon points="37.5,37.5 18.74946529714129,26.233542111342572 22.734374999999986,11.9251872944908 37.11822860918442,15.628331668453942" fill="#222222" stroke-width="1.5" stroke="#000000"></polygon><polygon points="18.74946529714129,26.233542111342572 22.734374999999986,11.9251872944908 17.96164772727271,3.658581167457525 12.84474663497466,22.824451202251666" fill="#d00000" stroke-width="1.5" stroke="#000000"></polygon><polygon points="22.734374999999986,11.9251872944908 37.11822860918442,15.628331668453942 37.11822860918442,8.810149850272124 17.96164772727271,3.658581167457525" fill="#2040d0" stroke-width="1.5" stroke="#000000"></polygon><line x1="36.927342913776634" y1="70.30750249731909" x2="38.07265708622335" y2="4.692497502680908" stroke-width="2" stroke="#d00000"></line><polygon points="37.5,112.5 37.88177139081558,90.62833166845394 52.26562500000001,86.9251872944908 56.25053470285871,101.23354211134256" fill="#888888" stroke-width="1.5" stroke="#000000"></polygon><polygon points="37.88177139081558,90.62833166845394 52.26562500000001,86.9251872944908 57.03835227272728,78.65858116745753 37.88177139081558,83.81014985027213" fill="#888888" stroke-width="1.5" stroke="#000000"></polygon><polygon points="52.26562500000001,86.9251872944908 56.25053470285871,101.23354211134256 62.15525336502534,97.82445120225165 57.03835227272728,78.65858116745753" fill="#888888" stroke-width="1.5" stroke="#000000"></polygon><polygon points="37.5,112.5 56.63230609367429,101.89478955711138 67.03125,112.5 56.63230609367429,123.10521044288862" fill="#888888" stroke-width="1.5" stroke="#000000"></polygon><polygon points="56.63230609367429,101.89478955711138 67.03125,112.5 76.57670454545455,112.5 62.53702475584092,98.48569864802047" fill="#888888" stroke-width="1.5" stroke="#000000"></polygon><polygon points="67.03125,112.5 56.63230609367429,123.10521044288862 62.53702475584092,126.51430135197953 76.57670454545455,112.5" fill="#888888" stroke-width="1.5" stroke="#000000"></polygon><polygon points="37.5,112.5 48.10521044288863,131.6323060936743 56.63230609367429,123.10521044288862" fill="#888888" stroke-width="1.5" stroke="#000000"></polygon><polygon points="48.10521044288863,131.6323060936743 56.63230609367429,123.10521044288862 62.47662859846142,126.61683368091171 51.616833680911725,137.47662859846142" fill="#888888" stroke-width="1.5" stroke="#000000"></polygon><polygon points="37.5,112.5 37.11822860918442,134.37166833154606 48.76645788865744,131.25053470285872" fill="#888888" stroke-width="1.5" stroke="#000000"></polygon><polygon points="37.11822860918442,134.37166833154606 48.76645788865744,131.25053470285872 52.07197802670065,137.21385088790004 37.23722228943863,141.18881170761236" fill="#888888" stroke-width="1.5" stroke="#000000"></polygon><polygon points="37.5,112.5 26.233542111342572,131.25053470285872 37.88177139081558,134.37166833154606" fill="#888888" stroke-width="1.5" stroke="#000000"></polygon><polygon points="26.233542111342572,131.25053470285872 37.88177139081558,134.37166833154606 37.76277771056137,141.18881170761236 22.928021973299366,137.21385088790004" fill="#888888" stroke-width="1.5" stroke="#000000"></polygon><polygon points="37.5,112.5 26.233542111342572,131.25053470285872 11.925187294490797,127.26562500000001 15.628331668453942,112.88177139081557" fill="#888888" stroke-width="1.5" stroke="#000000"></polygon><polygon points="26.233542111342572,131.25053470285872 11.925187294490797,127.26562500000001 3.6585811674575215,132.03835227272728 22.824451202251666,137.15525336502535" fill="#888888" stroke-width="1.5" stroke="#000000"></polygon><polygon points="11.925187294490797,127.26562500000001 15.628331668453942,112.88177139081557 8.810149850272124,112.88177139081557 3.6585811674575215,132.03835227272728" fill="#888888" stroke-width="1.5" stroke="#000000"></polygon><polygon points="37.5,112.5 15.628331668453942,112.11822860918443 11.925187294490787,97.734375 26.233542111342558,93.7494652971413" fill="#888888" stroke-width="1.5" stroke="#000000"></polygon><polygon points="15.628331668453942,112.11822860918443 11.925187294490787,97.734375 3.6585811674575073,92.96164772727273 8.810149850272124,112.11822860918443" fill="#888888" stroke-width="1.5" stroke="#000000"></polygon><polygon points="11.925187294490787,97.734375 26.233542111342558,93.7494652971413 22.824451202251645,87.84474663497467 3.6585811674575073,92.96164772727273" fill="#888888" stroke-width="1.5" stroke="#000000"></polygon><polygon points="37.5,112.5 37.881771390815565,90.62833166845394 26.233542111342558,93.7494652971413" fill="#888888" stroke-width="1.5" stroke="#000000"></polygon><polygon points="37.881771390815565,90.62833166845394 26.233542111342558,93.7494652971413 22.928021973299348,87.78614911209996 37.76277771056136,83.81118829238764" fill="#888888" stroke-width="1.5" stroke="#000000"></polygon><line x1="36.927342913776634" y1="145.3075024973191" x2="38.07265708622335" y2="79.69249750268091" stroke-width="2" stroke="#d00000"></line><polygon points="37.5,112.5 37.88177139081558,90.62833166845394 52.26562500000001,86.9251872944908 56.25053470285871,101.23354211134256" fill="#ffffff" stroke-width="1.5" stroke="#000000"></polygon><polygon points="37.88177139081558,90.62833166845394 52.26562500000001,86.9251872944908 57.03835227272728,78.65858116745753 37.88177139081558,83.81014985027213" fill="#2040d0" stroke-width="1.5" stroke="#000000"></polygon><polygon points="52.26562500000001,86.9251872944908 56.25053470285871,101.23354211134256 62.15525336502534,97.82445120225165 57.03835227272728,78.65858116745753" fill="#d00000" stroke-width="1.5" stroke="#000000"></polygon><polygon points="37.5,112.5 56.63230609367429,101.89478955711138 67.03125,112.5 56.63230609367429,123.10521044288862" fill="#222222" stroke-width="1.5" stroke="#000000"></polygon><polygon points="56.63230609367429,101.89478955711138 67.03125,112.5 76.57670454545455,112.5 62.53702475584092,98.48569864802047" fill="#ee8800" stroke-width="1.5" stroke="#000000"></polygon><polygon points="67.03125,112.5 56.63230609367429,123.10521044288862 62.53702475584092,126.51430135197953 76.57670454545455,112.5" fill="#11aa00" stroke-width="1.5" stroke="#000000"></polygon><polygon points="37.5,112.5 56.25053470285871,123.76645788865744 52.26562500000001,138.0748127055092 37.88177139081558,134.37166833154606" fill="#ffffff" stroke-width="1.5" stroke="#000000"></polygon><polygon points="56.25053470285871,123.76645788865744 52.26562500000001,138.0748127055092 57.03835227272728,146.34141883254247 62.15525336502534,127.17554879774835" fill="#d00000" stroke-width="1.5" stroke="#000000"></polygon><polygon points="52.26562500000001,138.0748127055092 37.88177139081558,134.37166833154606 37.88177139081558,141.18985014972787 57.03835227272728,146.34141883254247" fill="#11aa00" stroke-width="1.5" stroke="#000000"></polygon><polygon points="37.5,112.5 26.233542111342572,131.25053470285872 37.88177139081558,134.37166833154606" fill="#ffffff" stroke-width="1.5" stroke="#000000"></polygon><polygon points="26.233542111342572,131.25053470285872 37.88177139081558,134.37166833154606 37.76277771056137,141.18881170761236 22.928021973299366,137.21385088790004" fill="#d00000" stroke-width="1.5" stroke="#000000"></polygon><polygon points="37.5,112.5 26.233542111342572,131.25053470285872 11.925187294490797,127.26562500000001 15.628331668453942,112.88177139081557" fill="#222222" stroke-width="1.5" stroke="#000000"></polygon><polygon points="26.233542111342572,131.25053470285872 11.925187294490797,127.26562500000001 3.6585811674575215,132.03835227272728 22.824451202251666,137.15525336502535" fill="#11aa00" stroke-width="1.5" stroke="#000000"></polygon><polygon points="11.925187294490797,127.26562500000001 15.628331668453942,112.88177139081557 8.810149850272124,112.88177139081557 3.6585811674575215,132.03835227272728" fill="#d00000" stroke-width="1.5" stroke="#000000"></polygon><polygon points="37.5,112.5 18.74946529714129,101.23354211134257 15.628331668453942,112.88177139081557" fill="#222222" stroke-width="1.5" stroke="#000000"></polygon><polygon points="18.74946529714129,101.23354211134257 15.628331668453942,112.88177139081557 8.811188292387637,112.76277771056137 12.786149112099952,97.92802197329937" fill="#d00000" stroke-width="1.5" stroke="#000000"></polygon><polygon points="37.5,112.5 26.894789557111366,93.36769390632573 18.367693906325716,101.89478955711138" fill="#ffffff" stroke-width="1.5" stroke="#000000"></polygon><polygon points="26.894789557111366,93.36769390632573 18.367693906325716,101.89478955711138 12.523371401538585,98.38316631908829 23.383166319088268,87.5233714015386" fill="#ee8800" stroke-width="1.5" stroke="#000000"></polygon><polygon points="37.5,112.5 37.881771390815565,90.62833166845394 26.233542111342558,93.7494652971413" fill="#222222" stroke-width="1.5" stroke="#000000"></polygon><polygon points="37.881771390815565,90.62833166845394 26.233542111342558,93.7494652971413 22.928021973299348,87.78614911209996 37.76277771056136,83.81118829238764" fill="#2040d0" stroke-width="1.5" stroke="#000000"></polygon><line x1="36.927342913776634" y1="145.3075024973191" x2="38.07265708622335" y2="79.69249750268091" stroke-width="2" stroke="#d00000"></line></svg>