<svg xmlns="http://www.w3.org/2000/svg" version="1.1" xmlns:xlink="http://www.w3.org/1999/xlink" xmlns:svgjs="http://svgjs.dev/svgjs" width="75" height="150"><polygon points="37.5,37.5 48.76645788865744,18.749465297141295 37.11822860918442,15.628331668453942" fill="#888888" stroke-width="1.5" stroke="#000000"></polygon><polygon points="48.76645788865744,18.749465297141295 37.11822860918442,15.628331668453942 37.23722228943863,8.811188292387637 52.07197802670065,12.78614911209996" fill="#888888" stroke-width="1.5" stroke="#000000"></polygon><polygon points="37.5,37.5 56.63230609367429,26.89478955711138 48.10521044288863,18.36769390632572" fill="#888888" stroke-width="1.5" stroke="#000000"></polygon><polygon points="56.63230609367429,26.89478955711138 48.10521044288863,18.36769390632572 51.616833680911725,12.52337140153859 62.47662859846142,23.383166319088282" fill="#888888" stroke-width="1.5" stroke="#000000"></polygon><polygon points="37.5,37.5 56.63230609367429,26.89478955711138 67.03125,37.5 56.63230609367429,48.10521044288862" fill="#888888" stroke-width="1.5" stroke="#000000"></polygon><polygon points="56.63230609367429,26.89478955711138 67.03125,37.5 76.57670454545455,37.5 62.53702475584092,23.48569864802047" fill="#888888" stroke-width="1.5" stroke="#000000"></polygon><polygon points="67.03125,37.5 56.63230609367429,48.10521044288862 62.53702475584092,51.514301351979526 76.57670454545455,37.5" fill="#888888" stroke-width="1.5" stroke="#000000"></polygon><polygon points="37.5,37.5 56.25053470285871,48.766457888657435 52.26562500000001,63.0748127055092 37.88177139081558,59.37166833154606" fill="#888888" stroke-width="1.5" stroke="#000000"></polygon><polygon points="56.25053470285871,48.766457888657435 52.26562500000001,63.0748127055092 57.03835227272728,71.34141883254247 62.15525336502534,52.17554879774834" fill="#888888" stroke-width="1.5" stroke="#000000"></polygon><polygon points="52.26562500000001,63.0748127055092 37.88177139081558,59.37166833154606 37.88177139081558,66.18985014972787 57.03835227272728,71.34141883254247" fill="#888888" stroke-width="1.5" stroke="#000000"></polygon><polygon points="37.5,37.5 26.233542111342572,56.250534702858715 37.88177139081558,59.37166833154606" fill="#888888" stroke-width="1.5" stroke="#000000"></polygon><polygon points="26.233542111342572,56.250534702858715 37.88177139081558,59.37166833154606 37.76277771056137,66.18881170761236 22.928021973299366,62.21385088790005" fill="#888888" stroke-width="1.5" stroke="#000000"></polygon><polygon points="37.5,37.5 26.233542111342572,56.250534702858715 11.925187294490797,52.265625000000014 15.628331668453942,37.88177139081557" fill="#888888" stroke-width="1.5" stroke="#000000"></polygon><polygon points="26.233542111342572,56.250534702858715 11.925187294490797,52.265625000000014 3.6585811674575215,57.03835227272729 22.824451202251666,62.155253365025345" fill="#888888" stroke-width="1.5" stroke="#000000"></polygon><polygon points="11.925187294490797,52.265625000000014 15.628331668453942,37.88177139081557 8.810149850272124,37.88177139081557 3.6585811674575215,57.03835227272729" fill="#888888" stroke-width="1.5" stroke="#000000"></polygon><polygon points="37.5,37.5 15.628331668453942,37.11822860918443 11.925187294490787,22.734375000000007 26.233542111342558,18.7494652971413" fill="#888888" stroke-width="1.5" stroke="#000000"></polygon><polygon points="15.628331668453942,37.11822860918443 11.925187294490787,22.734375000000007 3.6585811674575073,17.961647727272737 8.810149850272124,37.11822860918443" fill="#888888" stroke-width="1.5" stroke="#000000"></polygon><polygon points="11.925187294490787,22.734375000000007 26.233542111342558,18.7494652971413 22.824451202251645,12.844746634974673 3.6585811674575073,17.961647727272737" fill="#888888" stroke-width="1.5" stroke="#000000"></polygon><polygon points="37.5,37.5 37.881771390815565,15.628331668453942 26.233542111342558,18.7494652971413" fill="#888888" stroke-width="1.5" stroke="#000000"></polygon><polygon points="37.881771390815565,15.628331668453942 26.233542111342558,18.7494652971413 22.928021973299348,12.786149112099967 37.76277771056136,8.811188292387637" fill="#888888" stroke-width="1.5" stroke="#000000"></polygon><line x1="36.927342913776634" y1="70.30750249731909" x2="38.07265708622335" y2="4.692497502680908" stroke-width="2" stroke="#d00000"></line><polygon points="37.5,37.5 37.88177139081558,15.628331668453942 52.26562500000001,11.925187294490794 56.25053470285871,26.233542111342565" fill="#222222" stroke-width="1.5" stroke="#000000"></polygon><polygon points="37.88177139081558,15.628331668453942 52.26562500000001,11.925187294490794 57.03835227272728,3.658581167457516 37.88177139081558,8.810149850272124" fill="#11aa00" stroke-width="1.5" stroke="#000000"></polygon><polygon points="52.26562500000001,11.925187294490794 56.25053470285871,26.233542111342565 62.15525336502534,22.824451202251655 57.03835227272728,3.658581167457516" fill="#d00000" stroke-width="1.5" stroke="#000000"></polygon><polygon points="37.5,37.5 56.63230609367429,26.89478955711138 67.03125,37.5 56.63230609367429,48.10521044288862" fill="#ffffff" stroke-width="1.5" stroke="#000000"></polygon><polygon points="56.63230609367429,26.89478955711138 67.03125,37.5 76.57670454545455,37.5 62.53702475584092,23.48569864802047" fill="#11aa00" stroke-width="1.5" stroke="#000000"></polygon><polygon points="67.03125,37.5 56.63230609367429,48.10521044288862 62.53702475584092,51.514301351979526 76.57670454545455,37.5" fill="#ee8800" stroke-width="1.5" stroke="#000000"></polygon><polygon points="37.5,37.5 56.25053470285871,48.766457888657435 52.26562500000001,63.0748127055092 37.88177139081558,59.37166833154606" fill="#222222" stroke-width="1.5" stroke="#000000"></polygon><polygon points="56.25053470285871,48.766457888657435 52.26562500000001,63.0748127055092 57.03835227272728,71.34141883254247 62.15525336502534,52.17554879774834" fill="#d00000" stroke-width="1.5" stroke="#000000"></polygon><polygon points="52.26562500000001,63.0748127055092 37.88177139081558,59.37166833154606 37.88177139081558,66.18985014972787 57.03835227272728,71.34141883254247" fill="#2040d0" stroke-width="1.5" stroke="#000000"></polygon><polygon points="37.5,37.5 26.233542111342572,56.250534702858715 37.88177139081558,59.37166833154606" fill="#ffffff" stroke-width="1.5" stroke="#000000"></polygon><polygon points="26.233542111342572,56.250534702858715 37.88177139081558,59.37166833154606 37.76277771056137,66.18881170761236 22.928021973299366,62.21385088790005" fill="#2040d0" stroke-width="1.5" stroke="#000000"></polygon><polygon points="37.5,37.5 18.367693906325723,48.105210442888634 26.89478955711138,56.63230609367429" fill="#222222" stroke-width="1.5" stroke="#000000"></polygon><polygon points="18.367693906325723,48.105210442888634 26.89478955711138,56.63230609367429 23.383166319088286,62.47662859846142 12.523371401538594,51.61683368091173" fill="#ee8800" stroke-width="1.5" stroke="#000000"></polygon><polygon points="37.5,37.5 15.628331668453942,37.11822860918443 18.749465297141295,48.76645788865744" fill="#ffffff" stroke-width="1.5" stroke="#000000"></polygon><polygon points="15.628331668453942,37.11822860918443 18.749465297141295,48.76645788865744 12.786149112099963,52.071978026700656 8.811188292387637,37.237222289438634" fill="#d00000" stroke-width="1.5" stroke="#000000"></polygon><polygon points="37.5,37.5 15.628331668453942,37.11822860918443 11.925187294490787,22.734375000000007 26.233542111342558,18.7494652971413" fill="#ffffff" stroke-width="1.5" stroke="#000000"></polygon><polygon points="15.628331668453942,37.11822860918443 11.925187294490787,22.734375000000007 3.6585811674575073,17.961647727272737 8.810149850272124,37.11822860918443" fill="#d00000" stroke-width="1.5" stroke="#000000"></polygon><polygon points="11.925187294490787,22.734375000000007 26.233542111342558,18.7494652971413 22.824451202251645,12.844746634974673 3.6585811674575073,17.961647727272737" fill="#11aa00" stroke-width="1.5" stroke="#000000"></polygon><polygon points="37.5,37.5 37.881771390815565,15.628331668453942 26.233542111342558,18.7494652971413" fill="#222222" stroke-width="1.5" stroke="#000000"></polygon><polygon points="37.881771390815565,15.628331668453942 26.233542111342558,18.7494652971413 22.928021973299348,12.786149112099967 37.76277771056136,8.811188292387637" fill="#d00000" stroke-width="1.5" stroke="#000000"></polygon><line x1="36.927342913776634" y1="70.30750249731909" x2="38.07265708622335" y2="4.692497502680908" stroke-width="2" stroke="#d00000"></line><polygon points="37.5,112.5 48.76645788865744,93.7494652971413 37.11822860918442,90.62833166845394" fill="#888888" stroke-width="1.5" stroke="#000000"></polygon><polygon points="48.76645788865744,93.7494652971413 37.11822860918442,90.62833166845394 37.23722228943863,83.81118829238764 52.07197802670065,87.78614911209996" fill="#888888" stroke-width="1.5" stroke="#000000"></polygon><polygon points="37.5,112.5 48.76645788865744,93.7494652971413 63.07481270550921,97.734375 59.37166833154606,112.11822860918443" fill="#888888" stroke-width="1.5" stroke="#000000"></polygon><polygon points="48.76645788865744,93.7494652971413 63.07481270550921,97.734375 71.34141883254249,92.96164772727273 52.17554879774835,87.84474663497467" fill="#888888" stroke-width="1.5" stroke="#000000"></polygon><polygon points="63.07481270550921,97.734375 59.37166833154606,112.11822860918443 66.18985014972787,112.11822860918443 71.34141883254249,92.96164772727273" fill="#888888" stroke-width="1.5" stroke="#000000"></polygon><polygon points="37.5,112.5 56.25053470285871,123.76645788865744 59.37166833154606,112.11822860918443" fill="#888888" stroke-width="1.5" stroke="#000000"></polygon><polygon points="56.25053470285871,123.76645788865744 59.37166833154606,112.11822860918443 66.18881170761236,112.23722228943863 62.213850887900044,127.07197802670065" fill="#888888" stroke-width="1.5" stroke="#000000"></polygon><polygon points="37.5,112.5 48.10521044288863,131.6323060936743 56.63230609367429,123.10521044288862" fill="#888888" stroke-width="1.5" stroke="#000000"></polygon><polygon points="48.10521044288863,131.6323060936743 56.63230609367429,123.10521044288862 62.47662859846142,126.61683368091171 51.616833680911725,137.47662859846142" fill="#888888" stroke-width="1.5" stroke="#000000"></polygon><polygon points="37.5,112.5 37.11822860918442,134.37166833154606 48.76645788865744,131.25053470285872" fill="#888888" stroke-width="1.5" stroke="#000000"></polygon><polygon points="37.11822860918442,134.37166833154606 48.76645788865744,131.25053470285872 52.07197802670065,137.21385088790004 37.23722228943863,141.18881170761236" fill="#888888" stroke-width="1.5" stroke="#000000"></polygon><polygon points="37.5,112.5 37.11822860918442,134.37166833154606 22.734375000000007,138.0748127055092 18.749465297141295,123.76645788865744" fill="#888888" stroke-width="1.5" stroke="#000000"></polygon><polygon points="37.11822860918442,134.37166833154606 22.734375000000007,138.0748127055092 17.961647727272737,146.34141883254247 37.11822860918442,141.18985014972787" fill="#888888" stroke-width="1.5" stroke="#000000"></polygon><polygon points="22.734375000000007,138.0748127055092 18.749465297141295,123.76645788865744 12.844746634974669,127.17554879774835 17.961647727272737,146.34141883254247" fill="#888888" stroke-width="1.5" stroke="#000000"></polygon><polygon points="37.5,112.5 18.367693906325723,123.10521044288863 7.9687499999999964,112.5 18.367693906325716,101.89478955711138" fill="#888888" stroke-width="1.5" stroke="#000000"></polygon><polygon points="18.367693906325723,123.10521044288863 7.9687499999999964,112.5 -1.5767045454545485,112.5 12.462975244159097,126.51430135197954" fill="#888888" stroke-width="1.5" stroke="#000000"></polygon><polygon points="7.9687499999999964,112.5 18.367693906325716,101.89478955711138 12.462975244159088,98.48569864802047 -1.5767045454545485,112.5" fill="#888888" stroke-width="1.5" stroke="#000000"></polygon><polygon points="37.5,112.5 18.74946529714129,101.23354211134257 22.734374999999986,86.9251872944908 37.11822860918442,90.62833166845394" fill="#888888" stroke-width="1.5" stroke="#000000"></polygon><polygon points="18.74946529714129,101.23354211134257 22.734374999999986,86.9251872944908 17.96164772727271,78.65858116745753 12.84474663497466,97.82445120225167" fill="#888888" stroke-width="1.5" stroke="#000000"></polygon><polygon points="22.734374999999986,86.9251872944908 37.11822860918442,90.62833166845394 37.11822860918442,83.81014985027213 17.96164772727271,78.65858116745753" fill="#888888" stroke-width="1.5" stroke="#000000"></polygon><line x1="36.927342913776634" y1="145.3075024973191" x2="38.07265708622335" y2="79.69249750268091" stroke-width="2" stroke="#d00000"></line><polygon points="37.5,112.5 48.76645788865744,93.7494652971413 37.11822860918442,90.62833166845394" fill="#ffffff" stroke-width="1.5" stroke="#000000"></polygon><polygon points="48.76645788865744,93.7494652971413 37.11822860918442,90.62833166845394 37.23722228943863,83.81118829238764 52.07197802670065,87.78614911209996" fill="#ee8800" stroke-width="1.5" stroke="#000000"></polygon><polygon points="37.5,112.5 48.76645788865744,93.7494652971413 63.07481270550921,97.734375 59.37166833154606,112.11822860918443" fill="#ffffff" stroke-width="1.5" stroke="#000000"></polygon><polygon points="48.76645788865744,93.7494652971413 63.07481270550921,97.734375 71.34141883254249,92.96164772727273 52.17554879774835,87.84474663497467" fill="#ee8800" stroke-width="1.5" stroke="#000000"></polygon><polygon points="63.07481270550921,97.734375 59.37166833154606,112.11822860918443 66.18985014972787,112.11822860918443 71.34141883254249,92.96164772727273" fill="#2040d0" stroke-width="1.5" stroke="#000000"></polygon><polygon points="37.5,112.5 59.37166833154606,112.88177139081557 63.07481270550921,127.265625 48.76645788865744,131.25053470285872" fill="#222222" stroke-width="1.5" stroke="#000000"></polygon><polygon points="59.37166833154606,112.88177139081557 63.07481270550921,127.265625 71.34141883254249,132.03835227272728 66.18985014972787,112.88177139081557" fill="#2040d0" stroke-width="1.5" stroke="#000000"></polygon><polygon points="63.07481270550921,127.265625 48.76645788865744,131.25053470285872 52.17554879774835,137.15525336502535 71.34141883254249,132.03835227272728" fill="#ee8800" stroke-width="1.5" stroke="#000000"></polygon><polygon points="37.5,112.5 37.11822860918442,134.37166833154606 48.76645788865744,131.25053470285872" fill="#222222" stroke-width="1.5" stroke="#000000"></polygon><polygon points="37.11822860918442,134.37166833154606 48.76645788865744,131.25053470285872 52.07197802670065,137.21385088790004 37.23722228943863,141.18881170761236" fill="#2040d0" stroke-width="1.5" stroke="#000000"></polygon><polygon points="37.5,112.5 37.11822860918442,134.37166833154606 22.734375000000007,138.0748127055092 18.749465297141295,123.76645788865744" fill="#ffffff" stroke-width="1.5" stroke="#000000"></polygon><polygon points="37.11822860918442,134.37166833154606 22.734375000000007,138.0748127055092 17.961647727272737,146.34141883254247 37.11822860918442,141.18985014972787" fill="#2040d0" stroke-width="1.5" stroke="#000000"></polygon><polygon points="22.734375000000007,138.0748127055092 18.749465297141295,123.76645788865744 12.844746634974669,127.17554879774835 17.961647727272737,146.34141883254247" fill="#d00000" stroke-width="1.5" stroke="#000000"></polygon><polygon points="37.5,112.5 18.367693906325723,123.10521044288863 7.9687499999999964,112.5 18.367693906325716,101.89478955711138" fill="#222222" stroke-width="1.5" stroke="#000000"></polygon><polygon points="18.367693906325723,123.10521044288863 7.9687499999999964,112.5 -1.5767045454545485,112.5 12.462975244159097,126.51430135197954" fill="#ee8800" stroke-width="1.5" stroke="#000000"></polygon><polygon points="7.9687499999999964,112.5 18.367693906325716,101.89478955711138 12.462975244159088,98.48569864802047 -1.5767045454545485,112.5" fill="#11aa00" stroke-width="1.5" stroke="#000000"></polygon><polygon points="37.5,112.5 26.894789557111366,93.36769390632573 18.367693906325716,101.89478955711138" fill="#222222" stroke-width="1.5" stroke="#000000"></polygon><polygon points="26.894789557111366,93.36769390632573 18.367693906325716,101.89478955711138 12.523371401538585,98.38316631908829 23.383166319088268,87.5233714015386" fill="#11aa00" stroke-width="1.5" stroke="#000000"></polygon><polygon points="37.5,112.5 37.881771390815565,90.62833166845394 26.233542111342558,93.7494652971413" fill="#ffffff" stroke-width="1.5" stroke="#000000"></polygon><polygon points="37.881771390815565,90.62833166845394 26.233542111342558,93.7494652971413 22.928021973299348,87.78614911209996 37.76277771056136,83.81118829238764" fill="#11aa00" stroke-width="1.5" stroke="#000000"></polygon><line x1="36.927342913776634" y1="145.3075024973191" x2="38.07265708622335" y2="79.69249750268091" stroke-width="2" stroke="#d00000"></line></svg>