<svg xmlns="http://www.w3.org/2000/svg" version="1.1" xmlns:xlink="http://www.w3.org/1999/xlink" xmlns:svgjs="http://svgjs.dev/svgjs" width="75" height="75"><polygon points="33.89669355326993,4.2753068849212665 70.41305592323062,11.842343199633557 46.609684903136426,28.33527591367973 5.17468668752721,16.185382026783703"></polygon><polygon points="5.17468668752721,16.185382026783703 46.609684903136426,28.33527591367973 45.37846315555163,72.27689884680791 9.86342069220491,55.51567628141751"></polygon><polygon points="46.609684903136426,28.33527591367973 70.41305592323062,11.842343199633557 66.3288572181319,49.29713062731925 45.37846315555163,72.27689884680791"></polygon><polygon points="34.108414614078605,4.489234266102436 43.518756426902854,6.446038145182838 36.821038152048786,9.60359624444511 27.124776428833787,7.402987793411306" fill="#888888"></polygon><polygon points="45.25765283047034,6.8076274790774525 55.59506772152932,8.957208648479911 49.33154604486055,12.442910011082835 38.61778196274991,10.011375007749848" fill="#888888"></polygon><polygon points="57.50952440331835,9.355304311291102 68.91809923028038,11.727624458658644 63.22210593135512,15.595432534544159 51.32182123579963,12.89461155649154" fill="#888888"></polygon><polygon points="25.805602015979915,7.9533812984341905 35.552320167467585,10.201717960453147 27.800015216419016,13.856448165818168 17.770478922306012,11.305841382351394" fill="#888888"></polygon><polygon points="37.35936881442981,10.618561215779744 48.140785208225154,13.105578216775344 40.83492431577666,17.171349931536806 29.665507556627777,14.330860668840334" fill="#888888"></polygon><polygon points="50.14479949863678,13.567856773548284 62.13490052209442,16.333688645708886 55.43382308424232,20.88398919401692 42.91850981817181,17.701225606792253" fill="#888888"></polygon><polygon points="16.245123261785587,11.942259008572695 26.323575013808735,14.552498003765422 17.24636960430907,18.831836471470307 6.901747549850859,15.840555743810476" fill="#888888"></polygon><polygon points="28.19931632120169,15.038300111660414 39.437656462202625,17.948940991733256 30.805705057223808,22.75269299060226 19.178915313970425,19.3906569586954" fill="#11aa00"></polygon><polygon points="41.53553397070886,18.492274612270904 54.1461999443192,21.758336988673115 46.148331096146784,27.189210955233285 32.98527214980927,23.382942892857766" fill="#11aa00"></polygon><polygon points="5.9969377892190385,17.656108774807358 16.32355548665091,20.74505873809122 17.36046965078781,33.510781199990866 7.437947519525842,29.980603035134056" fill="#888888"></polygon><polygon points="18.253016991105866,21.322208993670646 29.86310760661622,24.795077848825585 30.305503646041824,38.11629134638776 19.209682513929888,34.16868357453626" fill="#ee8800"></polygon><polygon points="32.03989867546585,25.446210571001586 45.1885716791493,29.3793079492516 44.87018415777596,43.29803006568453 32.379900079175876,38.85430824336547" fill="#ffffff"></polygon><polygon points="7.67928053435135,32.04464694371412 17.533689472054338,35.64333588934542 18.465159234792797,47.11090464675396 8.98001784285452,43.169436149285275" fill="#11aa00"></polygon><polygon points="19.369421383073494,36.313718880054466 30.379164106838065,40.33431917021166 30.774077863629866,52.225769360810986 20.22803022603955,47.843450445491975" fill="#11aa00"></polygon><polygon points="32.436481544707384,41.085622020348964 44.81736827971061,45.60694445704043 44.53515946038101,57.94406784087266 32.739684569904966,53.04256023308847" fill="#888888"></polygon><polygon points="9.198426273959488,45.03741344253156 18.621208637364973,49.03206980437317 19.462538998492462,59.38990872719584 10.378421415296343,55.12953360019572" fill="#11aa00"></polygon><polygon points="20.37181244823564,49.77421372539983 30.840042792620707,54.21207308898044 31.194728888730435,64.89220760607343 21.146704840150626,60.17976841316208" fill="#11aa00"></polygon><polygon points="32.79030657141194,55.03886005176476 44.48817606574826,59.99800767858687 44.23631132061184,71.00860062946276 33.0623782229821,65.76811951460297" fill="#888888"></polygon><polygon points="47.57931285467451,29.176813114208123 55.47050130596307,23.59482260984604 54.68613658737117,36.7541236198131 47.13907169394925,43.069838545367396" fill="#ee8800"></polygon><polygon points="56.740927932678225,22.696160841648787 63.35241498717597,18.019392800214806 62.28319626440303,30.39657086650669 55.90665473093268,35.73274050398486" fill="#888888"></polygon><polygon points="64.42506978174316,17.260628906196434 70.04476153561679,13.285427173123871 68.78037749841408,24.959444636223356 63.3216709698687,29.527529684306607" fill="#888888"></polygon><polygon points="47.06603008844324,45.37486809134597 54.55540967032122,38.94733146150906 53.85392540776588,50.71614556790116 46.675692246320274,57.693056509767125" fill="#888888"></polygon><polygon points="55.76750806044387,37.9070841731581 62.10418207726528,32.46882271115293 61.1395934012144,43.63481293366602 55.02034619309036,49.582438462417365" fill="#ee8800"></polygon><polygon points="63.13681957341568,31.58259238201993 68.56786572929879,26.921559018222876 67.41869492285605,37.53181639870721 62.14021168359172,42.66225819966187" fill="#ee8800"></polygon><polygon points="46.61069759496011,59.74414219823032 53.73664983129216,52.68368002649538 53.10556952134488,63.27132575202988 46.262233573352155,70.74088658730034" fill="#888888"></polygon><polygon points="54.89535233671615,51.53562641393684 60.977671508417785,45.50920594352372 60.10307190401741,55.63349090955751 54.22233580012543,62.052365624757925" fill="#ee8800"></polygon><polygon points="61.9728211316131,44.523202103368405 67.22510953338171,39.31918412151092 66.17609113862872,49.00473748119445 61.0682170811485,54.58002653629915" fill="#ee8800"></polygon></svg>