<svg xmlns="http://www.w3.org/2000/svg" version="1.1" xmlns:xlink="http://www.w3.org/1999/xlink" xmlns:svgjs="http://svgjs.dev/svgjs" width="75" height="75"><rect width="58.33333333333333" height="58.33333333333333" x="8.333333333333334" y="8.333333333333334" fill="#000000"></rect><rect width="9.843749999999998" height="9.843749999999998" x="9.0625" y="9.0625" rx="0" ry="0" fill="#ffff00"></rect><rect width="9.843749999999998" height="9.843749999999998" x="9.0625" y="12.34375" rx="0" ry="0" fill="#ffff00"></rect><rect width="9.843749999999998" height="9.843749999999998" x="12.34375" y="9.0625" rx="0" ry="0" fill="#ffff00"></rect><rect width="9.843749999999998" height="9.843749999999998" x="12.34375" y="12.34375" rx="1" ry="1" fill="#ffff00"></rect><rect width="9.843749999999998" height="9.843749999999998" x="9.0625" y="23.645833333333332" rx="0" ry="0" fill="#ffff00"></rect><rect width="9.843749999999998" height="9.843749999999998" x="9.0625" y="26.927083333333332" rx="0" ry="0" fill="#ffff00"></rect><rect width="9.843749999999998" height="9.843749999999998" x="12.34375" y="23.645833333333332" rx="3.2812499999999996" ry="3.2812499999999996" fill="#ffff00"></rect><rect width="9.843749999999998" height="9.843749999999998" x="12.34375" y="26.927083333333332" rx="3.2812499999999996" ry="3.2812499999999996" fill="#ffff00"></rect><rect width="9.843749999999998" height="9.843749999999998" x="9.0625" y="38.229166666666664" rx="0" ry="0" fill="#ffff00"></rect><rect width="9.843749999999998" height="9.843749999999998" x="9.0625" y="41.510416666666664" rx="0" ry="0" fill="#ffff00"></rect><rect width="9.843749999999998" height="9.843749999999998" x="12.34375" y="38.229166666666664" rx="3.2812499999999996" ry="3.2812499999999996" fill="#ffff00"></rect><rect width="9.843749999999998" height="9.843749999999998" x="12.34375" y="41.510416666666664" rx="3.2812499999999996" ry="3.2812499999999996" fill="#ffff00"></rect><rect width="9.843749999999998" height="9.843749999999998" x="9.0625" y="52.8125" rx="0" ry="0" fill="#11aa00"></rect><rect width="9.843749999999998" height="9.843749999999998" x="9.0625" y="56.09375" rx="0" ry="0" fill="#11aa00"></rect><rect width="9.843749999999998" height="9.843749999999998" x="12.34375" y="52.8125" rx="3.2812499999999996" ry="3.2812499999999996" fill="#11aa00"></rect><rect width="9.843749999999998" height="9.843749999999998" x="12.34375" y="56.09375" rx="0" ry="0" fill="#11aa00"></rect><rect width="9.843749999999998" height="9.843749999999998" x="23.645833333333332" y="9.0625" rx="0" ry="0" fill="#ffff00"></rect><rect width="9.843749999999998" height="9.843749999999998" x="23.645833333333332" y="12.34375" rx="3.2812499999999996" ry="3.2812499999999996" fill="#ffff00"></rect><rect width="9.843749999999998" height="9.843749999999998" x="26.927083333333332" y="9.0625" rx="0" ry="0" fill="#ffff00"></rect><rect width="9.843749999999998" height="9.843749999999998" x="26.927083333333332" y="12.34375" rx="3.2812499999999996" ry="3.2812499999999996" fill="#ffff00"></rect><rect width="9.843749999999998" height="9.843749999999998" x="23.645833333333332" y="23.645833333333332" rx="3.2812499999999996" ry="3.2812499999999996" fill="#ffff00"></rect><rect width="9.843749999999998" height="9.843749999999998" x="23.645833333333332" y="26.927083333333332" rx="3.2812499999999996" ry="3.2812499999999996" fill="#ffff00"></rect><rect width="9.843749999999998" height="9.843749999999998" x="26.927083333333332" y="23.645833333333332" rx="3.2812499999999996" ry="3.2812499999999996" fill="#ffff00"></rect><rect width="9.843749999999998" height="9.843749999999998" x="26.927083333333332" y="26.927083333333332" rx="3.2812499999999996" ry="3.2812499999999996" fill="#ffff00"></rect><rect width="9.843749999999998" height="9.843749999999998" x="23.645833333333332" y="38.229166666666664" rx="3.2812499999999996" ry="3.2812499999999996" fill="#ffff00"></rect><rect width="9.843749999999998" height="9.843749999999998" x="23.645833333333332" y="41.510416666666664" rx="3.2812499999999996" ry="3.2812499999999996" fill="#ffff00"></rect><rect width="9.843749999999998" height="9.843749999999998" x="26.927083333333332" y="38.229166666666664" rx="3.2812499999999996" ry="3.2812499999999996" fill="#ffff00"></rect><rect width="9.843749999999998" height="9.843749999999998" x="26.927083333333332" y="41.510416666666664" rx="3.2812499999999996" ry="3.2812499999999996" fill="#ffff00"></rect><rect width="9.843749999999998" height="9.843749999999998" x="23.645833333333332" y="52.8125" rx="3.2812499999999996" ry="3.2812499999999996" fill="#11aa00"></rect><rect width="9.843749999999998" height="9.843749999999998" x="23.645833333333332" y="56.09375" rx="0" ry="0" fill="#11aa00"></rect><rect width="9.843749999999998" height="9.843749999999998" x="26.927083333333332" y="52.8125" rx="3.2812499999999996" ry="3.2812499999999996" fill="#11aa00"></rect><rect width="9.843749999999998" height="9.843749999999998" x="26.927083333333332" y="56.09375" rx="0" ry="0" fill="#11aa00"></rect><rect width="9.843749999999998" height="9.843749999999998" x="38.229166666666664" y="9.0625" rx="0" ry="0" fill="#ffff00"></rect><rect width="9.843749999999998" height="9.843749999999998" x="38.229166666666664" y="12.34375" rx="3.2812499999999996" ry="3.2812499999999996" fill="#ffff00"></rect><rect width="9.843749999999998" height="9.843749999999998" x="41.510416666666664" y="9.0625" rx="0" ry="0" fill="#ffff00"></rect><rect width="9.843749999999998" height="9.843749999999998" x="41.510416666666664" y="12.34375" rx="3.2812499999999996" ry="3.2812499999999996" fill="#ffff00"></rect><rect width="9.843749999999998" height="9.843749999999998" x="38.229166666666664" y="23.645833333333332" rx="3.2812499999999996" ry="3.2812499999999996" fill="#ffff00"></rect><rect width="9.843749999999998" height="9.843749999999998" x="38.229166666666664" y="26.927083333333332" rx="3.2812499999999996" ry="3.2812499999999996" fill="#ffff00"></rect><rect width="9.843749999999998" height="9.843749999999998" x="41.510416666666664" y="23.645833333333332" rx="3.2812499999999996" ry="3.2812499999999996" fill="#ffff00"></rect><rect width="9.843749999999998" height="9.843749999999998" x="41.510416666666664" y="26.927083333333332" rx="3.2812499999999996" ry="3.2812499999999996" fill="#ffff00"></rect><rect width="9.843749999999998" height="9.843749999999998" x="38.229166666666664" y="38.229166666666664" rx="3.2812499999999996" ry="3.2812499999999996" fill="#ffff00"></rect><rect width="9.843749999999998" height="9.843749999999998" x="38.229166666666664" y="41.510416666666664" rx="3.2812499999999996" ry="3.2812499999999996" fill="#ffff00"></rect><rect width="9.843749999999998" height="9.843749999999998" x="41.510416666666664" y="38.229166666666664" rx="3.2812499999999996" ry="3.2812499999999996" fill="#ffff00"></rect><rect width="9.843749999999998" height="9.843749999999998" x="41.510416666666664" y="41.510416666666664" rx="3.2812499999999996" ry="3.2812499999999996" fill="#ffff00"></rect><rect width="9.843749999999998" height="9.843749999999998" x="38.229166666666664" y="52.8125" rx="3.2812499999999996" ry="3.2812499999999996" fill="#11aa00"></rect><rect width="9.843749999999998" height="9.843749999999998" x="38.229166666666664" y="56.09375" rx="0" ry="0" fill="#11aa00"></rect><rect width="9.843749999999998" height="9.843749999999998" x="41.510416666666664" y="52.8125" rx="3.2812499999999996" ry="3.2812499999999996" fill="#11aa00"></rect><rect width="9.843749999999998" height="9.843749999999998" x="41.510416666666664" y="56.09375" rx="0" ry="0" fill="#11aa00"></rect><rect width="9.843749999999998" height="9.843749999999998" x="52.8125" y="9.0625" rx="0" ry="0" fill="#ffff00"></rect><rect width="9.843749999999998" height="9.843749999999998" x="52.8125" y="12.34375" rx="1" ry="1" fill="#ffff00"></rect><rect width="9.843749999999998" height="9.843749999999998" x="56.09375" y="9.0625" rx="1" ry="1" fill="#ffff00"></rect><rect width="9.843749999999998" height="9.843749999999998" x="56.09375" y="12.34375" rx="0" ry="0" fill="#ffff00"></rect><rect width="9.843749999999998" height="9.843749999999998" x="52.8125" y="23.645833333333332" rx="3.2812499999999996" ry="3.2812499999999996" fill="#ffff00"></rect><rect width="9.843749999999998" height="9.843749999999998" x="52.8125" y="26.927083333333332" rx="3.2812499999999996" ry="3.2812499999999996" fill="#ffff00"></rect><rect width="9.843749999999998" height="9.843749999999998" x="56.09375" y="23.645833333333332" rx="1" ry="1" fill="#ffff00"></rect><rect width="9.843749999999998" height="9.843749999999998" x="56.09375" y="26.927083333333332" rx="0" ry="0" fill="#ffff00"></rect><rect width="9.843749999999998" height="9.843749999999998" x="52.8125" y="38.229166666666664" rx="3.2812499999999996" ry="3.2812499999999996" fill="#ffff00"></rect><rect width="9.843749999999998" height="9.843749999999998" x="52.8125" y="41.510416666666664" rx="3.2812499999999996" ry="3.2812499999999996" fill="#ffff00"></rect><rect width="9.843749999999998" height="9.843749999999998" x="56.09375" y="38.229166666666664" rx="1" ry="1" fill="#ffff00"></rect><rect width="9.843749999999998" height="9.843749999999998" x="56.09375" y="41.510416666666664" rx="0" ry="0" fill="#ffff00"></rect><rect width="9.843749999999998" height="9.843749999999998" x="52.8125" y="52.8125" rx="1" ry="1" fill="#11aa00"></rect><rect width="9.843749999999998" height="9.843749999999998" x="52.8125" y="56.09375" rx="0" ry="0" fill="#11aa00"></rect><rect width="9.843749999999998" height="9.843749999999998" x="56.09375" y="52.8125" rx="1" ry="1" fill="#11aa00"></rect><rect width="9.843749999999998" height="9.843749999999998" x="56.09375" y="56.09375" rx="0" ry="0" fill="#11aa00"></rect><rect width="58.33333333333333" height="8.333333333333334" x="8.333333333333334" y="0" fill="#000000"></rect><rect width="58.33333333333333" height="8.333333333333334" x="8.333333333333334" y="66.66666666666666" fill="#000000"></rect><rect width="8.333333333333334" height="58.33333333333333" x="0" y="8.333333333333334" fill="#000000"></rect><rect width="8.333333333333334" height="58.33333333333333" x="66.66666666666666" y="8.333333333333334" fill="#000000"></rect><rect width="13.124999999999998" height="6.875000000000001" x="9.0625" y="0.7291666666666666" rx="1" ry="1" fill="#2040d0"></rect><rect width="13.124999999999998" height="6.875000000000001" x="9.0625" y="67.39583333333333" rx="1" ry="1" fill="#ffff00"></rect><rect width="6.875000000000001" height="13.124999999999998" x="0.7291666666666666" y="9.0625" rx="1" ry="1" fill="#d00000"></rect><rect width="6.875000000000001" height="13.124999999999998" x="67.39583333333333" y="9.0625" rx="1" ry="1" fill="#ee8800"></rect><rect width="13.124999999999998" height="6.875000000000001" x="23.645833333333332" y="0.7291666666666666" rx="1" ry="1" fill="#2040d0"></rect><rect width="13.124999999999998" height="6.875000000000001" x="23.645833333333332" y="67.39583333333333" rx="1" ry="1" fill="#ffff00"></rect><rect width="6.875000000000001" height="13.124999999999998" x="0.7291666666666666" y="23.645833333333332" rx="1" ry="1" fill="#ee8800"></rect><rect width="6.875000000000001" height="13.124999999999998" x="67.39583333333333" y="23.645833333333332" rx="1" ry="1" fill="#d00000"></rect><rect width="13.124999999999998" height="6.875000000000001" x="38.229166666666664" y="0.7291666666666666" rx="1" ry="1" fill="#2040d0"></rect><rect width="13.124999999999998" height="6.875000000000001" x="38.229166666666664" y="67.39583333333333" rx="1" ry="1" fill="#ffff00"></rect><rect width="6.875000000000001" height="13.124999999999998" x="0.7291666666666666" y="38.229166666666664" rx="1" ry="1" fill="#ee8800"></rect><rect width="6.875000000000001" height="13.124999999999998" x="67.39583333333333" y="38.229166666666664" rx="1" ry="1" fill="#d00000"></rect><rect width="13.124999999999998" height="6.875000000000001" x="52.8125" y="0.7291666666666666" rx="1" ry="1" fill="#2040d0"></rect><rect width="13.124999999999998" height="6.875000000000001" x="52.8125" y="67.39583333333333" rx="1" ry="1" fill="#ffff00"></rect><rect width="6.875000000000001" height="13.124999999999998" x="0.7291666666666666" y="52.8125" rx="1" ry="1" fill="#ee8800"></rect><rect width="6.875000000000001" height="13.124999999999998" x="67.39583333333333" y="52.8125" rx="1" ry="1" fill="#d00000"></rect></svg>