<svg xmlns="http://www.w3.org/2000/svg" version="1.1" xmlns:xlink="http://www.w3.org/1999/xlink" xmlns:svgjs="http://svgjs.dev/svgjs" width="75" height="75"><polygon points="37.5,37.5 37.88177139081558,15.628331668453942 52.26562500000001,11.925187294490794 56.25053470285871,26.233542111342565" fill="#888888" stroke-width="1.5" stroke="#000000"></polygon><polygon points="37.88177139081558,15.628331668453942 52.26562500000001,11.925187294490794 57.03835227272728,3.658581167457516 37.88177139081558,8.810149850272124" fill="#888888" stroke-width="1.5" stroke="#000000"></polygon><polygon points="52.26562500000001,11.925187294490794 56.25053470285871,26.233542111342565 62.15525336502534,22.824451202251655 57.03835227272728,3.658581167457516" fill="#888888" stroke-width="1.5" stroke="#000000"></polygon><polygon points="37.5,37.5 59.37166833154606,37.88177139081558 56.25053470285871,26.233542111342565" fill="#888888" stroke-width="1.5" stroke="#000000"></polygon><polygon points="59.37166833154606,37.88177139081558 56.25053470285871,26.233542111342565 62.213850887900044,22.92802197329936 66.18881170761236,37.76277771056137" fill="#888888" stroke-width="1.5" stroke="#000000"></polygon><polygon points="37.5,37.5 59.37166833154606,37.88177139081558 63.07481270550921,52.265625 48.76645788865744,56.2505347028587" fill="#888888" stroke-width="1.5" stroke="#000000"></polygon><polygon points="59.37166833154606,37.88177139081558 63.07481270550921,52.265625 71.34141883254249,57.03835227272727 66.18985014972787,37.88177139081558" fill="#888888" stroke-width="1.5" stroke="#000000"></polygon><polygon points="63.07481270550921,52.265625 48.76645788865744,56.2505347028587 52.17554879774835,62.15525336502533 71.34141883254249,57.03835227272727" fill="#888888" stroke-width="1.5" stroke="#000000"></polygon><polygon points="37.5,37.5 37.11822860918442,59.37166833154606 48.76645788865744,56.2505347028587" fill="#888888" stroke-width="1.5" stroke="#000000"></polygon><polygon points="37.11822860918442,59.37166833154606 48.76645788865744,56.2505347028587 52.07197802670065,62.21385088790004 37.23722228943863,66.18881170761236" fill="#888888" stroke-width="1.5" stroke="#000000"></polygon><polygon points="37.5,37.5 37.11822860918442,59.37166833154606 22.734375000000007,63.07481270550921 18.749465297141295,48.76645788865744" fill="#888888" stroke-width="1.5" stroke="#000000"></polygon><polygon points="37.11822860918442,59.37166833154606 22.734375000000007,63.07481270550921 17.961647727272737,71.34141883254249 37.11822860918442,66.18985014972787" fill="#888888" stroke-width="1.5" stroke="#000000"></polygon><polygon points="22.734375000000007,63.07481270550921 18.749465297141295,48.76645788865744 12.844746634974669,52.175548797748355 17.961647727272737,71.34141883254249" fill="#888888" stroke-width="1.5" stroke="#000000"></polygon><polygon points="37.5,37.5 15.628331668453942,37.11822860918443 18.749465297141295,48.76645788865744" fill="#888888" stroke-width="1.5" stroke="#000000"></polygon><polygon points="15.628331668453942,37.11822860918443 18.749465297141295,48.76645788865744 12.786149112099963,52.071978026700656 8.811188292387637,37.237222289438634" fill="#888888" stroke-width="1.5" stroke="#000000"></polygon><polygon points="37.5,37.5 15.628331668453942,37.11822860918443 11.925187294490787,22.734375000000007 26.233542111342558,18.7494652971413" fill="#888888" stroke-width="1.5" stroke="#000000"></polygon><polygon points="15.628331668453942,37.11822860918443 11.925187294490787,22.734375000000007 3.6585811674575073,17.961647727272737 8.810149850272124,37.11822860918443" fill="#888888" stroke-width="1.5" stroke="#000000"></polygon><polygon points="11.925187294490787,22.734375000000007 26.233542111342558,18.7494652971413 22.824451202251645,12.844746634974673 3.6585811674575073,17.961647727272737" fill="#888888" stroke-width="1.5" stroke="#000000"></polygon><polygon points="37.5,37.5 37.881771390815565,15.628331668453942 26.233542111342558,18.7494652971413" fill="#888888" stroke-width="1.5" stroke="#000000"></polygon><polygon points="37.881771390815565,15.628331668453942 26.233542111342558,18.7494652971413 22.928021973299348,12.786149112099967 37.76277771056136,8.811188292387637" fill="#888888" stroke-width="1.5" stroke="#000000"></polygon><line x1="36.927342913776634" y1="70.30750249731909" x2="38.07265708622335" y2="4.692497502680908" stroke-width="2" stroke="#d00000"></line><polygon points="37.5,37.5 37.88177139081558,15.628331668453942 52.26562500000001,11.925187294490794 56.25053470285871,26.233542111342565" fill="#222222" stroke-width="1.5" stroke="#000000"></polygon><polygon points="37.88177139081558,15.628331668453942 52.26562500000001,11.925187294490794 57.03835227272728,3.658581167457516 37.88177139081558,8.810149850272124" fill="#ee8800" stroke-width="1.5" stroke="#000000"></polygon><polygon points="52.26562500000001,11.925187294490794 56.25053470285871,26.233542111342565 62.15525336502534,22.824451202251655 57.03835227272728,3.658581167457516" fill="#11aa00" stroke-width="1.5" stroke="#000000"></polygon><polygon points="37.5,37.5 59.37166833154606,37.88177139081558 56.25053470285871,26.233542111342565" fill="#222222" stroke-width="1.5" stroke="#000000"></polygon><polygon points="59.37166833154606,37.88177139081558 56.25053470285871,26.233542111342565 62.213850887900044,22.92802197329936 66.18881170761236,37.76277771056137" fill="#ee8800" stroke-width="1.5" stroke="#000000"></polygon><polygon points="37.5,37.5 59.37166833154606,37.88177139081558 63.07481270550921,52.265625 48.76645788865744,56.2505347028587" fill="#222222" stroke-width="1.5" stroke="#000000"></polygon><polygon points="59.37166833154606,37.88177139081558 63.07481270550921,52.265625 71.34141883254249,57.03835227272727 66.18985014972787,37.88177139081558" fill="#11aa00" stroke-width="1.5" stroke="#000000"></polygon><polygon points="63.07481270550921,52.265625 48.76645788865744,56.2505347028587 52.17554879774835,62.15525336502533 71.34141883254249,57.03835227272727" fill="#d00000" stroke-width="1.5" stroke="#000000"></polygon><polygon points="37.5,37.5 37.11822860918442,59.37166833154606 48.76645788865744,56.2505347028587" fill="#222222" stroke-width="1.5" stroke="#000000"></polygon><polygon points="37.11822860918442,59.37166833154606 48.76645788865744,56.2505347028587 52.07197802670065,62.21385088790004 37.23722228943863,66.18881170761236" fill="#2040d0" stroke-width="1.5" stroke="#000000"></polygon><polygon points="37.5,37.5 37.11822860918442,59.37166833154606 22.734375000000007,63.07481270550921 18.749465297141295,48.76645788865744" fill="#222222" stroke-width="1.5" stroke="#000000"></polygon><polygon points="37.11822860918442,59.37166833154606 22.734375000000007,63.07481270550921 17.961647727272737,71.34141883254249 37.11822860918442,66.18985014972787" fill="#d00000" stroke-width="1.5" stroke="#000000"></polygon><polygon points="22.734375000000007,63.07481270550921 18.749465297141295,48.76645788865744 12.844746634974669,52.175548797748355 17.961647727272737,71.34141883254249" fill="#2040d0" stroke-width="1.5" stroke="#000000"></polygon><polygon points="37.5,37.5 15.628331668453942,37.11822860918443 18.749465297141295,48.76645788865744" fill="#222222" stroke-width="1.5" stroke="#000000"></polygon><polygon points="15.628331668453942,37.11822860918443 18.749465297141295,48.76645788865744 12.786149112099963,52.071978026700656 8.811188292387637,37.237222289438634" fill="#11aa00" stroke-width="1.5" stroke="#000000"></polygon><polygon points="37.5,37.5 15.628331668453942,37.11822860918443 11.925187294490787,22.734375000000007 26.233542111342558,18.7494652971413" fill="#222222" stroke-width="1.5" stroke="#000000"></polygon><polygon points="15.628331668453942,37.11822860918443 11.925187294490787,22.734375000000007 3.6585811674575073,17.961647727272737 8.810149850272124,37.11822860918443" fill="#2040d0" stroke-width="1.5" stroke="#000000"></polygon><polygon points="11.925187294490787,22.734375000000007 26.233542111342558,18.7494652971413 22.824451202251645,12.844746634974673 3.6585811674575073,17.961647727272737" fill="#ee8800" stroke-width="1.5" stroke="#000000"></polygon><polygon points="37.5,37.5 37.881771390815565,15.628331668453942 26.233542111342558,18.7494652971413" fill="#222222" stroke-width="1.5" stroke="#000000"></polygon><polygon points="37.881771390815565,15.628331668453942 26.233542111342558,18.7494652971413 22.928021973299348,12.786149112099967 37.76277771056136,8.811188292387637" fill="#d00000" stroke-width="1.5" stroke="#000000"></polygon><line x1="36.927342913776634" y1="70.30750249731909" x2="38.07265708622335" y2="4.692497502680908" stroke-width="2" stroke="#d00000"></line></svg>