<svg xmlns="http://www.w3.org/2000/svg" version="1.1" xmlns:xlink="http://www.w3.org/1999/xlink" xmlns:svgjs="http://svgjs.dev/svgjs" width="75" height="75"><rect width="58.33333333333333" height="58.33333333333333" x="8.333333333333334" y="8.333333333333334" fill="#000000"></rect><rect width="7.875" height="7.875" x="8.916666666666668" y="8.916666666666668" rx="0" ry="0" fill="#888888"></rect><rect width="7.875" height="7.875" x="8.916666666666668" y="11.541666666666668" rx="0" ry="0" fill="#888888"></rect><rect width="7.875" height="7.875" x="11.541666666666668" y="8.916666666666668" rx="0" ry="0" fill="#888888"></rect><rect width="7.875" height="7.875" x="11.541666666666668" y="11.541666666666668" rx="1" ry="1" fill="#888888"></rect><rect width="7.875" height="7.875" x="8.916666666666668" y="20.583333333333332" rx="0" ry="0" fill="#888888"></rect><rect width="7.875" height="7.875" x="8.916666666666668" y="23.208333333333332" rx="0" ry="0" fill="#888888"></rect><rect width="7.875" height="7.875" x="11.541666666666668" y="20.583333333333332" rx="2.625" ry="2.625" fill="#888888"></rect><rect width="7.875" height="7.875" x="11.541666666666668" y="23.208333333333332" rx="2.625" ry="2.625" fill="#888888"></rect><rect width="7.875" height="7.875" x="8.916666666666668" y="32.25" rx="0" ry="0" fill="#888888"></rect><rect width="7.875" height="7.875" x="8.916666666666668" y="34.875" rx="0" ry="0" fill="#888888"></rect><rect width="7.875" height="7.875" x="11.541666666666668" y="32.25" rx="2.625" ry="2.625" fill="#888888"></rect><rect width="7.875" height="7.875" x="11.541666666666668" y="34.875" rx="2.625" ry="2.625" fill="#888888"></rect><rect width="7.875" height="7.875" x="8.916666666666668" y="43.91666666666667" rx="0" ry="0" fill="#888888"></rect><rect width="7.875" height="7.875" x="8.916666666666668" y="46.54166666666667" rx="0" ry="0" fill="#888888"></rect><rect width="7.875" height="7.875" x="11.541666666666668" y="43.91666666666667" rx="2.625" ry="2.625" fill="#888888"></rect><rect width="7.875" height="7.875" x="11.541666666666668" y="46.54166666666667" rx="2.625" ry="2.625" fill="#888888"></rect><rect width="7.875" height="7.875" x="8.916666666666668" y="55.583333333333336" rx="0" ry="0" fill="#888888"></rect><rect width="7.875" height="7.875" x="8.916666666666668" y="58.208333333333336" rx="0" ry="0" fill="#888888"></rect><rect width="7.875" height="7.875" x="11.541666666666668" y="55.583333333333336" rx="2.625" ry="2.625" fill="#888888"></rect><rect width="7.875" height="7.875" x="11.541666666666668" y="58.208333333333336" rx="0" ry="0" fill="#888888"></rect><rect width="7.875" height="7.875" x="20.583333333333332" y="8.916666666666668" rx="0" ry="0" fill="#2040d0"></rect><rect width="7.875" height="7.875" x="20.583333333333332" y="11.541666666666668" rx="2.625" ry="2.625" fill="#2040d0"></rect><rect width="7.875" height="7.875" x="23.208333333333332" y="8.916666666666668" rx="0" ry="0" fill="#2040d0"></rect><rect width="7.875" height="7.875" x="23.208333333333332" y="11.541666666666668" rx="2.625" ry="2.625" fill="#2040d0"></rect><rect width="7.875" height="7.875" x="20.583333333333332" y="20.583333333333332" rx="2.625" ry="2.625" fill="#888888"></rect><rect width="7.875" height="7.875" x="20.583333333333332" y="23.208333333333332" rx="2.625" ry="2.625" fill="#888888"></rect><rect width="7.875" height="7.875" x="23.208333333333332" y="20.583333333333332" rx="2.625" ry="2.625" fill="#888888"></rect><rect width="7.875" height="7.875" x="23.208333333333332" y="23.208333333333332" rx="2.625" ry="2.625" fill="#888888"></rect><rect width="7.875" height="7.875" x="20.583333333333332" y="32.25" rx="2.625" ry="2.625" fill="#888888"></rect><rect width="7.875" height="7.875" x="20.583333333333332" y="34.875" rx="2.625" ry="2.625" fill="#888888"></rect><rect width="7.875" height="7.875" x="23.208333333333332" y="32.25" rx="2.625" ry="2.625" fill="#888888"></rect><rect width="7.875" height="7.875" x="23.208333333333332" y="34.875" rx="2.625" ry="2.625" fill="#888888"></rect><rect width="7.875" height="7.875" x="20.583333333333332" y="43.91666666666667" rx="2.625" ry="2.625" fill="#888888"></rect><rect width="7.875" height="7.875" x="20.583333333333332" y="46.54166666666667" rx="2.625" ry="2.625" fill="#888888"></rect><rect width="7.875" height="7.875" x="23.208333333333332" y="43.91666666666667" rx="2.625" ry="2.625" fill="#888888"></rect><rect width="7.875" height="7.875" x="23.208333333333332" y="46.54166666666667" rx="2.625" ry="2.625" fill="#888888"></rect><rect width="7.875" height="7.875" x="20.583333333333332" y="55.583333333333336" rx="2.625" ry="2.625" fill="#ffff00"></rect><rect width="7.875" height="7.875" x="20.583333333333332" y="58.208333333333336" rx="0" ry="0" fill="#ffff00"></rect><rect width="7.875" height="7.875" x="23.208333333333332" y="55.583333333333336" rx="2.625" ry="2.625" fill="#ffff00"></rect><rect width="7.875" height="7.875" x="23.208333333333332" y="58.208333333333336" rx="0" ry="0" fill="#ffff00"></rect><rect width="7.875" height="7.875" x="32.25" y="8.916666666666668" rx="0" ry="0" fill="#ffff00"></rect><rect width="7.875" height="7.875" x="32.25" y="11.541666666666668" rx="2.625" ry="2.625" fill="#ffff00"></rect><rect width="7.875" height="7.875" x="34.875" y="8.916666666666668" rx="0" ry="0" fill="#ffff00"></rect><rect width="7.875" height="7.875" x="34.875" y="11.541666666666668" rx="2.625" ry="2.625" fill="#ffff00"></rect><rect width="7.875" height="7.875" x="32.25" y="20.583333333333332" rx="2.625" ry="2.625" fill="#888888"></rect><rect width="7.875" height="7.875" x="32.25" y="23.208333333333332" rx="2.625" ry="2.625" fill="#888888"></rect><rect width="7.875" height="7.875" x="34.875" y="20.583333333333332" rx="2.625" ry="2.625" fill="#888888"></rect><rect width="7.875" height="7.875" x="34.875" y="23.208333333333332" rx="2.625" ry="2.625" fill="#888888"></rect><rect width="7.875" height="7.875" x="32.25" y="32.25" rx="2.625" ry="2.625" fill="#888888"></rect><rect width="7.875" height="7.875" x="32.25" y="34.875" rx="2.625" ry="2.625" fill="#888888"></rect><rect width="7.875" height="7.875" x="34.875" y="32.25" rx="2.625" ry="2.625" fill="#888888"></rect><rect width="7.875" height="7.875" x="34.875" y="34.875" rx="2.625" ry="2.625" fill="#888888"></rect><rect width="7.875" height="7.875" x="32.25" y="43.91666666666667" rx="2.625" ry="2.625" fill="#888888"></rect><rect width="7.875" height="7.875" x="32.25" y="46.54166666666667" rx="2.625" ry="2.625" fill="#888888"></rect><rect width="7.875" height="7.875" x="34.875" y="43.91666666666667" rx="2.625" ry="2.625" fill="#888888"></rect><rect width="7.875" height="7.875" x="34.875" y="46.54166666666667" rx="2.625" ry="2.625" fill="#888888"></rect><rect width="7.875" height="7.875" x="32.25" y="55.583333333333336" rx="2.625" ry="2.625" fill="#11aa00"></rect><rect width="7.875" height="7.875" x="32.25" y="58.208333333333336" rx="0" ry="0" fill="#11aa00"></rect><rect width="7.875" height="7.875" x="34.875" y="55.583333333333336" rx="2.625" ry="2.625" fill="#11aa00"></rect><rect width="7.875" height="7.875" x="34.875" y="58.208333333333336" rx="0" ry="0" fill="#11aa00"></rect><rect width="7.875" height="7.875" x="43.91666666666667" y="8.916666666666668" rx="0" ry="0" fill="#2040d0"></rect><rect width="7.875" height="7.875" x="43.91666666666667" y="11.541666666666668" rx="2.625" ry="2.625" fill="#2040d0"></rect><rect width="7.875" height="7.875" x="46.54166666666667" y="8.916666666666668" rx="0" ry="0" fill="#2040d0"></rect><rect width="7.875" height="7.875" x="46.54166666666667" y="11.541666666666668" rx="2.625" ry="2.625" fill="#2040d0"></rect><rect width="7.875" height="7.875" x="43.91666666666667" y="20.583333333333332" rx="2.625" ry="2.625" fill="#888888"></rect><rect width="7.875" height="7.875" x="43.91666666666667" y="23.208333333333332" rx="2.625" ry="2.625" fill="#888888"></rect><rect width="7.875" height="7.875" x="46.54166666666667" y="20.583333333333332" rx="2.625" ry="2.625" fill="#888888"></rect><rect width="7.875" height="7.875" x="46.54166666666667" y="23.208333333333332" rx="2.625" ry="2.625" fill="#888888"></rect><rect width="7.875" height="7.875" x="43.91666666666667" y="32.25" rx="2.625" ry="2.625" fill="#888888"></rect><rect width="7.875" height="7.875" x="43.91666666666667" y="34.875" rx="2.625" ry="2.625" fill="#888888"></rect><rect width="7.875" height="7.875" x="46.54166666666667" y="32.25" rx="2.625" ry="2.625" fill="#888888"></rect><rect width="7.875" height="7.875" x="46.54166666666667" y="34.875" rx="2.625" ry="2.625" fill="#888888"></rect><rect width="7.875" height="7.875" x="43.91666666666667" y="43.91666666666667" rx="2.625" ry="2.625" fill="#888888"></rect><rect width="7.875" height="7.875" x="43.91666666666667" y="46.54166666666667" rx="2.625" ry="2.625" fill="#888888"></rect><rect width="7.875" height="7.875" x="46.54166666666667" y="43.91666666666667" rx="2.625" ry="2.625" fill="#888888"></rect><rect width="7.875" height="7.875" x="46.54166666666667" y="46.54166666666667" rx="2.625" ry="2.625" fill="#888888"></rect><rect width="7.875" height="7.875" x="43.91666666666667" y="55.583333333333336" rx="2.625" ry="2.625" fill="#ffff00"></rect><rect width="7.875" height="7.875" x="43.91666666666667" y="58.208333333333336" rx="0" ry="0" fill="#ffff00"></rect><rect width="7.875" height="7.875" x="46.54166666666667" y="55.583333333333336" rx="2.625" ry="2.625" fill="#ffff00"></rect><rect width="7.875" height="7.875" x="46.54166666666667" y="58.208333333333336" rx="0" ry="0" fill="#ffff00"></rect><rect width="7.875" height="7.875" x="55.583333333333336" y="8.916666666666668" rx="0" ry="0" fill="#888888"></rect><rect width="7.875" height="7.875" x="55.583333333333336" y="11.541666666666668" rx="1" ry="1" fill="#888888"></rect><rect width="7.875" height="7.875" x="58.208333333333336" y="8.916666666666668" rx="1" ry="1" fill="#888888"></rect><rect width="7.875" height="7.875" x="58.208333333333336" y="11.541666666666668" rx="0" ry="0" fill="#888888"></rect><rect width="7.875" height="7.875" x="55.583333333333336" y="20.583333333333332" rx="2.625" ry="2.625" fill="#888888"></rect><rect width="7.875" height="7.875" x="55.583333333333336" y="23.208333333333332" rx="2.625" ry="2.625" fill="#888888"></rect><rect width="7.875" height="7.875" x="58.208333333333336" y="20.583333333333332" rx="1" ry="1" fill="#888888"></rect><rect width="7.875" height="7.875" x="58.208333333333336" y="23.208333333333332" rx="0" ry="0" fill="#888888"></rect><rect width="7.875" height="7.875" x="55.583333333333336" y="32.25" rx="2.625" ry="2.625" fill="#888888"></rect><rect width="7.875" height="7.875" x="55.583333333333336" y="34.875" rx="2.625" ry="2.625" fill="#888888"></rect><rect width="7.875" height="7.875" x="58.208333333333336" y="32.25" rx="1" ry="1" fill="#888888"></rect><rect width="7.875" height="7.875" x="58.208333333333336" y="34.875" rx="0" ry="0" fill="#888888"></rect><rect width="7.875" height="7.875" x="55.583333333333336" y="43.91666666666667" rx="2.625" ry="2.625" fill="#888888"></rect><rect width="7.875" height="7.875" x="55.583333333333336" y="46.54166666666667" rx="2.625" ry="2.625" fill="#888888"></rect><rect width="7.875" height="7.875" x="58.208333333333336" y="43.91666666666667" rx="1" ry="1" fill="#888888"></rect><rect width="7.875" height="7.875" x="58.208333333333336" y="46.54166666666667" rx="0" ry="0" fill="#888888"></rect><rect width="7.875" height="7.875" x="55.583333333333336" y="55.583333333333336" rx="1" ry="1" fill="#888888"></rect><rect width="7.875" height="7.875" x="55.583333333333336" y="58.208333333333336" rx="0" ry="0" fill="#888888"></rect><rect width="7.875" height="7.875" x="58.208333333333336" y="55.583333333333336" rx="1" ry="1" fill="#888888"></rect><rect width="7.875" height="7.875" x="58.208333333333336" y="58.208333333333336" rx="0" ry="0" fill="#888888"></rect><rect width="58.33333333333333" height="8.333333333333334" x="8.333333333333334" y="0" fill="#000000"></rect><rect width="58.33333333333333" height="8.333333333333334" x="8.333333333333334" y="66.66666666666666" fill="#000000"></rect><rect width="8.333333333333334" height="58.33333333333333" x="0" y="8.333333333333334" fill="#000000"></rect><rect width="8.333333333333334" height="58.33333333333333" x="66.66666666666666" y="8.333333333333334" fill="#000000"></rect><rect width="10.5" height="7.166666666666668" x="8.916666666666668" y="0.5833333333333333" rx="1" ry="1" fill="#888888"></rect><rect width="10.5" height="7.166666666666668" x="8.916666666666668" y="67.24999999999999" rx="1" ry="1" fill="#888888"></rect><rect width="7.166666666666668" height="10.5" x="0.5833333333333333" y="8.916666666666668" rx="1" ry="1" fill="#888888"></rect><rect width="7.166666666666668" height="10.5" x="67.24999999999999" y="8.916666666666668" rx="1" ry="1" fill="#888888"></rect><rect width="10.5" height="7.166666666666668" x="20.583333333333332" y="0.5833333333333333" rx="1" ry="1" fill="#ffff00"></rect><rect width="10.5" height="7.166666666666668" x="20.583333333333332" y="67.24999999999999" rx="1" ry="1" fill="#11aa00"></rect><rect width="7.166666666666668" height="10.5" x="0.5833333333333333" y="20.583333333333332" rx="1" ry="1" fill="#888888"></rect><rect width="7.166666666666668" height="10.5" x="67.24999999999999" y="20.583333333333332" rx="1" ry="1" fill="#888888"></rect><rect width="10.5" height="7.166666666666668" x="32.25" y="0.5833333333333333" rx="1" ry="1" fill="#2040d0"></rect><rect width="10.5" height="7.166666666666668" x="32.25" y="67.24999999999999" rx="1" ry="1" fill="#ffff00"></rect><rect width="7.166666666666668" height="10.5" x="0.5833333333333333" y="32.25" rx="1" ry="1" fill="#888888"></rect><rect width="7.166666666666668" height="10.5" x="67.24999999999999" y="32.25" rx="1" ry="1" fill="#888888"></rect><rect width="10.5" height="7.166666666666668" x="43.91666666666667" y="0.5833333333333333" rx="1" ry="1" fill="#ffff00"></rect><rect width="10.5" height="7.166666666666668" x="43.91666666666667" y="67.24999999999999" rx="1" ry="1" fill="#11aa00"></rect><rect width="7.166666666666668" height="10.5" x="0.5833333333333333" y="43.91666666666667" rx="1" ry="1" fill="#888888"></rect><rect width="7.166666666666668" height="10.5" x="67.24999999999999" y="43.91666666666667" rx="1" ry="1" fill="#888888"></rect><rect width="10.5" height="7.166666666666668" x="55.583333333333336" y="0.5833333333333333" rx="1" ry="1" fill="#888888"></rect><rect width="10.5" height="7.166666666666668" x="55.583333333333336" y="67.24999999999999" rx="1" ry="1" fill="#888888"></rect><rect width="7.166666666666668" height="10.5" x="0.5833333333333333" y="55.583333333333336" rx="1" ry="1" fill="#888888"></rect><rect width="7.166666666666668" height="10.5" x="67.24999999999999" y="55.583333333333336" rx="1" ry="1" fill="#888888"></rect></svg>