<svg xmlns="http://www.w3.org/2000/svg" version="1.1" xmlns:xlink="http://www.w3.org/1999/xlink" xmlns:svgjs="http://svgjs.dev/svgjs" width="75" height="150"><polygon points="37.5,37.5 37.88177139081558,15.628331668453942 52.26562500000001,11.925187294490794 56.25053470285871,26.233542111342565" fill="#888888" stroke-width="1.5" stroke="#000000"></polygon><polygon points="37.88177139081558,15.628331668453942 52.26562500000001,11.925187294490794 57.03835227272728,3.658581167457516 37.88177139081558,8.810149850272124" fill="#888888" stroke-width="1.5" stroke="#000000"></polygon><polygon points="52.26562500000001,11.925187294490794 56.25053470285871,26.233542111342565 62.15525336502534,22.824451202251655 57.03835227272728,3.658581167457516" fill="#888888" stroke-width="1.5" stroke="#000000"></polygon><polygon points="37.5,37.5 59.37166833154606,37.88177139081558 56.25053470285871,26.233542111342565" fill="#888888" stroke-width="1.5" stroke="#000000"></polygon><polygon points="59.37166833154606,37.88177139081558 56.25053470285871,26.233542111342565 62.213850887900044,22.92802197329936 66.18881170761236,37.76277771056137" fill="#888888" stroke-width="1.5" stroke="#000000"></polygon><polygon points="37.5,37.5 59.37166833154606,37.88177139081558 63.07481270550921,52.265625 48.76645788865744,56.2505347028587" fill="#888888" stroke-width="1.5" stroke="#000000"></polygon><polygon points="59.37166833154606,37.88177139081558 63.07481270550921,52.265625 71.34141883254249,57.03835227272727 66.18985014972787,37.88177139081558" fill="#888888" stroke-width="1.5" stroke="#000000"></polygon><polygon points="63.07481270550921,52.265625 48.76645788865744,56.2505347028587 52.17554879774835,62.15525336502533 71.34141883254249,57.03835227272727" fill="#888888" stroke-width="1.5" stroke="#000000"></polygon><polygon points="37.5,37.5 37.11822860918442,59.37166833154606 48.76645788865744,56.2505347028587" fill="#888888" stroke-width="1.5" stroke="#000000"></polygon><polygon points="37.11822860918442,59.37166833154606 48.76645788865744,56.2505347028587 52.07197802670065,62.21385088790004 37.23722228943863,66.18881170761236" fill="#888888" stroke-width="1.5" stroke="#000000"></polygon><polygon points="37.5,37.5 37.11822860918442,59.37166833154606 22.734375000000007,63.07481270550921 18.749465297141295,48.76645788865744" fill="#888888" stroke-width="1.5" stroke="#000000"></polygon><polygon points="37.11822860918442,59.37166833154606 22.734375000000007,63.07481270550921 17.961647727272737,71.34141883254249 37.11822860918442,66.18985014972787" fill="#888888" stroke-width="1.5" stroke="#000000"></polygon><polygon points="22.734375000000007,63.07481270550921 18.749465297141295,48.76645788865744 12.844746634974669,52.175548797748355 17.961647727272737,71.34141883254249" fill="#888888" stroke-width="1.5" stroke="#000000"></polygon><polygon points="37.5,37.5 15.628331668453942,37.11822860918443 18.749465297141295,48.76645788865744" fill="#888888" stroke-width="1.5" stroke="#000000"></polygon><polygon points="15.628331668453942,37.11822860918443 18.749465297141295,48.76645788865744 12.786149112099963,52.071978026700656 8.811188292387637,37.237222289438634" fill="#888888" stroke-width="1.5" stroke="#000000"></polygon><polygon points="37.5,37.5 15.628331668453942,37.11822860918443 11.925187294490787,22.734375000000007 26.233542111342558,18.7494652971413" fill="#888888" stroke-width="1.5" stroke="#000000"></polygon><polygon points="15.628331668453942,37.11822860918443 11.925187294490787,22.734375000000007 3.6585811674575073,17.961647727272737 8.810149850272124,37.11822860918443" fill="#888888" stroke-width="1.5" stroke="#000000"></polygon><polygon points="11.925187294490787,22.734375000000007 26.233542111342558,18.7494652971413 22.824451202251645,12.844746634974673 3.6585811674575073,17.961647727272737" fill="#888888" stroke-width="1.5" stroke="#000000"></polygon><polygon points="37.5,37.5 37.881771390815565,15.628331668453942 26.233542111342558,18.7494652971413" fill="#888888" stroke-width="1.5" stroke="#000000"></polygon><polygon points="37.881771390815565,15.628331668453942 26.233542111342558,18.7494652971413 22.928021973299348,12.786149112099967 37.76277771056136,8.811188292387637" fill="#888888" stroke-width="1.5" stroke="#000000"></polygon><line x1="36.927342913776634" y1="70.30750249731909" x2="38.07265708622335" y2="4.692497502680908" stroke-width="2" stroke="#d00000"></line><polygon points="37.5,37.5 37.88177139081558,15.628331668453942 52.26562500000001,11.925187294490794 56.25053470285871,26.233542111342565" fill="#222222" stroke-width="1.5" stroke="#000000"></polygon><polygon points="37.88177139081558,15.628331668453942 52.26562500000001,11.925187294490794 57.03835227272728,3.658581167457516 37.88177139081558,8.810149850272124" fill="#d00000" stroke-width="1.5" stroke="#000000"></polygon><polygon points="52.26562500000001,11.925187294490794 56.25053470285871,26.233542111342565 62.15525336502534,22.824451202251655 57.03835227272728,3.658581167457516" fill="#2040d0" stroke-width="1.5" stroke="#000000"></polygon><polygon points="37.5,37.5 59.37166833154606,37.88177139081558 56.25053470285871,26.233542111342565" fill="#222222" stroke-width="1.5" stroke="#000000"></polygon><polygon points="59.37166833154606,37.88177139081558 56.25053470285871,26.233542111342565 62.213850887900044,22.92802197329936 66.18881170761236,37.76277771056137" fill="#ee8800" stroke-width="1.5" stroke="#000000"></polygon><polygon points="37.5,37.5 59.37166833154606,37.88177139081558 63.07481270550921,52.265625 48.76645788865744,56.2505347028587" fill="#222222" stroke-width="1.5" stroke="#000000"></polygon><polygon points="59.37166833154606,37.88177139081558 63.07481270550921,52.265625 71.34141883254249,57.03835227272727 66.18985014972787,37.88177139081558" fill="#2040d0" stroke-width="1.5" stroke="#000000"></polygon><polygon points="63.07481270550921,52.265625 48.76645788865744,56.2505347028587 52.17554879774835,62.15525336502533 71.34141883254249,57.03835227272727" fill="#ee8800" stroke-width="1.5" stroke="#000000"></polygon><polygon points="37.5,37.5 37.11822860918442,59.37166833154606 48.76645788865744,56.2505347028587" fill="#222222" stroke-width="1.5" stroke="#000000"></polygon><polygon points="37.11822860918442,59.37166833154606 48.76645788865744,56.2505347028587 52.07197802670065,62.21385088790004 37.23722228943863,66.18881170761236" fill="#11aa00" stroke-width="1.5" stroke="#000000"></polygon><polygon points="37.5,37.5 37.11822860918442,59.37166833154606 22.734375000000007,63.07481270550921 18.749465297141295,48.76645788865744" fill="#222222" stroke-width="1.5" stroke="#000000"></polygon><polygon points="37.11822860918442,59.37166833154606 22.734375000000007,63.07481270550921 17.961647727272737,71.34141883254249 37.11822860918442,66.18985014972787" fill="#ee8800" stroke-width="1.5" stroke="#000000"></polygon><polygon points="22.734375000000007,63.07481270550921 18.749465297141295,48.76645788865744 12.844746634974669,52.175548797748355 17.961647727272737,71.34141883254249" fill="#11aa00" stroke-width="1.5" stroke="#000000"></polygon><polygon points="37.5,37.5 15.628331668453942,37.11822860918443 18.749465297141295,48.76645788865744" fill="#222222" stroke-width="1.5" stroke="#000000"></polygon><polygon points="15.628331668453942,37.11822860918443 18.749465297141295,48.76645788865744 12.786149112099963,52.071978026700656 8.811188292387637,37.237222289438634" fill="#d00000" stroke-width="1.5" stroke="#000000"></polygon><polygon points="37.5,37.5 15.628331668453942,37.11822860918443 11.925187294490787,22.734375000000007 26.233542111342558,18.7494652971413" fill="#222222" stroke-width="1.5" stroke="#000000"></polygon><polygon points="15.628331668453942,37.11822860918443 11.925187294490787,22.734375000000007 3.6585811674575073,17.961647727272737 8.810149850272124,37.11822860918443" fill="#11aa00" stroke-width="1.5" stroke="#000000"></polygon><polygon points="11.925187294490787,22.734375000000007 26.233542111342558,18.7494652971413 22.824451202251645,12.844746634974673 3.6585811674575073,17.961647727272737" fill="#d00000" stroke-width="1.5" stroke="#000000"></polygon><polygon points="37.5,37.5 37.881771390815565,15.628331668453942 26.233542111342558,18.7494652971413" fill="#222222" stroke-width="1.5" stroke="#000000"></polygon><polygon points="37.881771390815565,15.628331668453942 26.233542111342558,18.7494652971413 22.928021973299348,12.786149112099967 37.76277771056136,8.811188292387637" fill="#2040d0" stroke-width="1.5" stroke="#000000"></polygon><line x1="36.927342913776634" y1="70.30750249731909" x2="38.07265708622335" y2="4.692497502680908" stroke-width="2" stroke="#d00000"></line><polygon points="37.5,112.5 48.76645788865744,93.7494652971413 37.11822860918442,90.62833166845394" fill="#888888" stroke-width="1.5" stroke="#000000"></polygon><polygon points="48.76645788865744,93.7494652971413 37.11822860918442,90.62833166845394 37.23722228943863,83.81118829238764 52.07197802670065,87.78614911209996" fill="#888888" stroke-width="1.5" stroke="#000000"></polygon><polygon points="37.5,112.5 48.76645788865744,93.7494652971413 63.07481270550921,97.734375 59.37166833154606,112.11822860918443" fill="#888888" stroke-width="1.5" stroke="#000000"></polygon><polygon points="48.76645788865744,93.7494652971413 63.07481270550921,97.734375 71.34141883254249,92.96164772727273 52.17554879774835,87.84474663497467" fill="#888888" stroke-width="1.5" stroke="#000000"></polygon><polygon points="63.07481270550921,97.734375 59.37166833154606,112.11822860918443 66.18985014972787,112.11822860918443 71.34141883254249,92.96164772727273" fill="#888888" stroke-width="1.5" stroke="#000000"></polygon><polygon points="37.5,112.5 56.25053470285871,123.76645788865744 59.37166833154606,112.11822860918443" fill="#888888" stroke-width="1.5" stroke="#000000"></polygon><polygon points="56.25053470285871,123.76645788865744 59.37166833154606,112.11822860918443 66.18881170761236,112.23722228943863 62.213850887900044,127.07197802670065" fill="#888888" stroke-width="1.5" stroke="#000000"></polygon><polygon points="37.5,112.5 56.25053470285871,123.76645788865744 52.26562500000001,138.0748127055092 37.88177139081558,134.37166833154606" fill="#888888" stroke-width="1.5" stroke="#000000"></polygon><polygon points="56.25053470285871,123.76645788865744 52.26562500000001,138.0748127055092 57.03835227272728,146.34141883254247 62.15525336502534,127.17554879774835" fill="#888888" stroke-width="1.5" stroke="#000000"></polygon><polygon points="52.26562500000001,138.0748127055092 37.88177139081558,134.37166833154606 37.88177139081558,141.18985014972787 57.03835227272728,146.34141883254247" fill="#888888" stroke-width="1.5" stroke="#000000"></polygon><polygon points="37.5,112.5 26.233542111342572,131.25053470285872 37.88177139081558,134.37166833154606" fill="#888888" stroke-width="1.5" stroke="#000000"></polygon><polygon points="26.233542111342572,131.25053470285872 37.88177139081558,134.37166833154606 37.76277771056137,141.18881170761236 22.928021973299366,137.21385088790004" fill="#888888" stroke-width="1.5" stroke="#000000"></polygon><polygon points="37.5,112.5 26.233542111342572,131.25053470285872 11.925187294490797,127.26562500000001 15.628331668453942,112.88177139081557" fill="#888888" stroke-width="1.5" stroke="#000000"></polygon><polygon points="26.233542111342572,131.25053470285872 11.925187294490797,127.26562500000001 3.6585811674575215,132.03835227272728 22.824451202251666,137.15525336502535" fill="#888888" stroke-width="1.5" stroke="#000000"></polygon><polygon points="11.925187294490797,127.26562500000001 15.628331668453942,112.88177139081557 8.810149850272124,112.88177139081557 3.6585811674575215,132.03835227272728" fill="#888888" stroke-width="1.5" stroke="#000000"></polygon><polygon points="37.5,112.5 18.74946529714129,101.23354211134257 15.628331668453942,112.88177139081557" fill="#888888" stroke-width="1.5" stroke="#000000"></polygon><polygon points="18.74946529714129,101.23354211134257 15.628331668453942,112.88177139081557 8.811188292387637,112.76277771056137 12.786149112099952,97.92802197329937" fill="#888888" stroke-width="1.5" stroke="#000000"></polygon><polygon points="37.5,112.5 18.74946529714129,101.23354211134257 22.734374999999986,86.9251872944908 37.11822860918442,90.62833166845394" fill="#888888" stroke-width="1.5" stroke="#000000"></polygon><polygon points="18.74946529714129,101.23354211134257 22.734374999999986,86.9251872944908 17.96164772727271,78.65858116745753 12.84474663497466,97.82445120225167" fill="#888888" stroke-width="1.5" stroke="#000000"></polygon><polygon points="22.734374999999986,86.9251872944908 37.11822860918442,90.62833166845394 37.11822860918442,83.81014985027213 17.96164772727271,78.65858116745753" fill="#888888" stroke-width="1.5" stroke="#000000"></polygon><line x1="36.927342913776634" y1="145.3075024973191" x2="38.07265708622335" y2="79.69249750268091" stroke-width="2" stroke="#d00000"></line><polygon points="37.5,112.5 48.76645788865744,93.7494652971413 37.11822860918442,90.62833166845394" fill="#ffffff" stroke-width="1.5" stroke="#000000"></polygon><polygon points="48.76645788865744,93.7494652971413 37.11822860918442,90.62833166845394 37.23722228943863,83.81118829238764 52.07197802670065,87.78614911209996" fill="#2040d0" stroke-width="1.5" stroke="#000000"></polygon><polygon points="37.5,112.5 48.76645788865744,93.7494652971413 63.07481270550921,97.734375 59.37166833154606,112.11822860918443" fill="#ffffff" stroke-width="1.5" stroke="#000000"></polygon><polygon points="48.76645788865744,93.7494652971413 63.07481270550921,97.734375 71.34141883254249,92.96164772727273 52.17554879774835,87.84474663497467" fill="#d00000" stroke-width="1.5" stroke="#000000"></polygon><polygon points="63.07481270550921,97.734375 59.37166833154606,112.11822860918443 66.18985014972787,112.11822860918443 71.34141883254249,92.96164772727273" fill="#11aa00" stroke-width="1.5" stroke="#000000"></polygon><polygon points="37.5,112.5 56.25053470285871,123.76645788865744 59.37166833154606,112.11822860918443" fill="#ffffff" stroke-width="1.5" stroke="#000000"></polygon><polygon points="56.25053470285871,123.76645788865744 59.37166833154606,112.11822860918443 66.18881170761236,112.23722228943863 62.213850887900044,127.07197802670065" fill="#d00000" stroke-width="1.5" stroke="#000000"></polygon><polygon points="37.5,112.5 56.25053470285871,123.76645788865744 52.26562500000001,138.0748127055092 37.88177139081558,134.37166833154606" fill="#ffffff" stroke-width="1.5" stroke="#000000"></polygon><polygon points="56.25053470285871,123.76645788865744 52.26562500000001,138.0748127055092 57.03835227272728,146.34141883254247 62.15525336502534,127.17554879774835" fill="#11aa00" stroke-width="1.5" stroke="#000000"></polygon><polygon points="52.26562500000001,138.0748127055092 37.88177139081558,134.37166833154606 37.88177139081558,141.18985014972787 57.03835227272728,146.34141883254247" fill="#ee8800" stroke-width="1.5" stroke="#000000"></polygon><polygon points="37.5,112.5 26.233542111342572,131.25053470285872 37.88177139081558,134.37166833154606" fill="#ffffff" stroke-width="1.5" stroke="#000000"></polygon><polygon points="26.233542111342572,131.25053470285872 37.88177139081558,134.37166833154606 37.76277771056137,141.18881170761236 22.928021973299366,137.21385088790004" fill="#11aa00" stroke-width="1.5" stroke="#000000"></polygon><polygon points="37.5,112.5 26.233542111342572,131.25053470285872 11.925187294490797,127.26562500000001 15.628331668453942,112.88177139081557" fill="#ffffff" stroke-width="1.5" stroke="#000000"></polygon><polygon points="26.233542111342572,131.25053470285872 11.925187294490797,127.26562500000001 3.6585811674575215,132.03835227272728 22.824451202251666,137.15525336502535" fill="#ee8800" stroke-width="1.5" stroke="#000000"></polygon><polygon points="11.925187294490797,127.26562500000001 15.628331668453942,112.88177139081557 8.810149850272124,112.88177139081557 3.6585811674575215,132.03835227272728" fill="#2040d0" stroke-width="1.5" stroke="#000000"></polygon><polygon points="37.5,112.5 18.74946529714129,101.23354211134257 15.628331668453942,112.88177139081557" fill="#ffffff" stroke-width="1.5" stroke="#000000"></polygon><polygon points="18.74946529714129,101.23354211134257 15.628331668453942,112.88177139081557 8.811188292387637,112.76277771056137 12.786149112099952,97.92802197329937" fill="#ee8800" stroke-width="1.5" stroke="#000000"></polygon><polygon points="37.5,112.5 18.74946529714129,101.23354211134257 22.734374999999986,86.9251872944908 37.11822860918442,90.62833166845394" fill="#ffffff" stroke-width="1.5" stroke="#000000"></polygon><polygon points="18.74946529714129,101.23354211134257 22.734374999999986,86.9251872944908 17.96164772727271,78.65858116745753 12.84474663497466,97.82445120225167" fill="#2040d0" stroke-width="1.5" stroke="#000000"></polygon><polygon points="22.734374999999986,86.9251872944908 37.11822860918442,90.62833166845394 37.11822860918442,83.81014985027213 17.96164772727271,78.65858116745753" fill="#d00000" stroke-width="1.5" stroke="#000000"></polygon><line x1="36.927342913776634" y1="145.3075024973191" x2="38.07265708622335" y2="79.69249750268091" stroke-width="2" stroke="#d00000"></line></svg>